<svg width="152" height="193" viewBox="0 0 152 193" fill="none" xmlns="http://www.w3.org/2000/svg">
<path opacity="0.25" d="M117.622 31.5171C94.6263 31.5171 76 50.0836 76 73.0052C98.9955 73.0052 117.622 54.4387 117.622 31.5171Z" fill="#27AAE1"/>
<path opacity="0.25" d="M48.2905 45.3848C63.5824 45.3848 76 57.7624 76 73.0053C60.708 73.0053 48.2905 60.6276 48.2905 45.3848Z" fill="#27AAE1"/>
<path d="M109.228 86.8728H76V153.231H109.228V86.8728Z" stroke="#27AAE1" stroke-width="2" stroke-miterlimit="10" stroke-linecap="square"/>
<path d="M76 153.231H42.7715V108.992L59.3283 92.374L76 108.992V153.231Z" stroke="#27AAE1" stroke-width="2" stroke-miterlimit="10" stroke-linecap="square"/>
<path d="M125.9 153.231H109.343V131.112L117.622 122.745L125.9 131.112V153.231Z" stroke="#27AAE1" stroke-width="2" stroke-miterlimit="10" stroke-linecap="square"/>
<path d="M51.0499 131.112V139.363" stroke="#27AAE1" stroke-width="2" stroke-miterlimit="10" stroke-linecap="square"/>
<path d="M51.0499 114.493V122.745" stroke="#27AAE1" stroke-width="2" stroke-miterlimit="10" stroke-linecap="square"/>
<path d="M59.3283 114.493V122.745" stroke="#27AAE1" stroke-width="2" stroke-miterlimit="10" stroke-linecap="square"/>
<path d="M67.7217 114.493V122.745" stroke="#27AAE1" stroke-width="2" stroke-miterlimit="10" stroke-linecap="square"/>
<path d="M84.3934 114.493V122.745" stroke="#27AAE1" stroke-width="2" stroke-miterlimit="10" stroke-linecap="square"/>
<path d="M92.6717 114.493V122.745" stroke="#27AAE1" stroke-width="2" stroke-miterlimit="10" stroke-linecap="square"/>
<path d="M100.95 114.493V122.745" stroke="#27AAE1" stroke-width="2" stroke-miterlimit="10" stroke-linecap="square"/>
<path d="M84.3934 97.8752V106.242" stroke="#27AAE1" stroke-width="2" stroke-miterlimit="10" stroke-linecap="square"/>
<path d="M92.6717 97.8752V106.242" stroke="#27AAE1" stroke-width="2" stroke-miterlimit="10" stroke-linecap="square"/>
<path d="M100.95 97.8752V106.242" stroke="#27AAE1" stroke-width="2" stroke-miterlimit="10" stroke-linecap="square"/>
<path d="M84.3934 131.112V139.363" stroke="#27AAE1" stroke-width="2" stroke-miterlimit="10" stroke-linecap="square"/>
<path d="M117.622 144.865V153.231" stroke="#27AAE1" stroke-width="2" stroke-miterlimit="10" stroke-linecap="square"/>
<path d="M117.622 133.862V139.363" stroke="#27AAE1" stroke-width="2" stroke-miterlimit="10" stroke-linecap="square"/>
<path d="M59.3283 147.615H67.7217" stroke="#24B574" stroke-width="2" stroke-miterlimit="10" stroke-linecap="square"/>
<path d="M59.3283 142.114H67.7217" stroke="#27AAE1" stroke-width="2" stroke-miterlimit="10" stroke-linecap="square"/>
<path d="M92.6717 142.114H100.95" stroke="#27AAE1" stroke-width="2" stroke-miterlimit="10" stroke-linecap="square"/>
<path d="M92.6717 147.615H100.95" stroke="#27AAE1" stroke-width="2" stroke-miterlimit="10" stroke-linecap="square"/>
<path d="M67.7216 153.231H53.8094L59.3283 147.615V131.112H67.7216V153.231Z" stroke="#27AAE1" stroke-width="2" stroke-miterlimit="10" stroke-linecap="square"/>
<path d="M106.584 153.231H92.6717V131.112H100.95V147.615L106.584 153.231Z" stroke="#27AAE1" stroke-width="2" stroke-miterlimit="10" stroke-linecap="square"/>
<path d="M35.758 142.114C39.568 142.114 42.6566 139.035 42.6566 135.238C42.6566 131.44 39.568 128.361 35.758 128.361C31.9479 128.361 28.8593 131.44 28.8593 135.238C28.8593 139.035 31.9479 142.114 35.758 142.114Z" stroke="#27AAE1" stroke-width="2" stroke-miterlimit="10" stroke-linecap="square"/>
<path d="M35.7579 142.114V153.231" stroke="#27AAE1" stroke-width="2" stroke-miterlimit="10" stroke-linecap="square"/>
<path d="M76 6.64718V1.146" stroke="#010101" stroke-width="2" stroke-miterlimit="10" stroke-linecap="square"/>
<path d="M111.298 16.3889L114.862 12.1484" stroke="#010101" stroke-width="2" stroke-miterlimit="10" stroke-linecap="square"/>
<path d="M128.775 46.3016L134.294 45.3848" stroke="#010101" stroke-width="2" stroke-miterlimit="10" stroke-linecap="square"/>
<path d="M120.381 78.5063L125.21 81.257" stroke="#010101" stroke-width="2" stroke-miterlimit="10" stroke-linecap="square"/>
<path d="M40.817 16.3889L37.2527 12.1484" stroke="#010101" stroke-width="2" stroke-miterlimit="10" stroke-linecap="square"/>
<path d="M24.6052 46.3016L19.2012 45.3848" stroke="#010101" stroke-width="2" stroke-miterlimit="10" stroke-linecap="square"/>
<path d="M31.6188 78.5063L26.9047 81.257" stroke="#010101" stroke-width="2" stroke-miterlimit="10" stroke-linecap="square"/>
<path d="M76 70.2546V175.35C76 184.519 83.4735 191.968 92.6717 191.968" stroke="#010101" stroke-width="2" stroke-miterlimit="10" stroke-linecap="square"/>
<path d="M117.622 31.5171C94.6263 31.5171 76 50.0836 76 73.0052C98.9955 73.0052 117.622 54.4387 117.622 31.5171Z" stroke="#010101" stroke-width="2" stroke-miterlimit="10" stroke-linecap="square"/>
<path d="M48.2905 45.3848C63.5824 45.3848 76 57.7624 76 73.0053C60.708 73.0053 48.2905 60.6276 48.2905 45.3848Z" stroke="#010101" stroke-width="2" stroke-miterlimit="10" stroke-linecap="square"/>
<path d="M76 153.231C76 162.4 68.5265 169.849 59.3283 169.849" stroke="#010101" stroke-width="2" stroke-miterlimit="10" stroke-linecap="square"/>
<path d="M76 169.734C76 175.809 71.056 180.737 64.9622 180.737" stroke="#010101" stroke-width="2" stroke-miterlimit="10" stroke-linecap="square"/>
<path d="M76 153.231C76 162.4 83.4735 169.849 92.6717 169.849" stroke="#010101" stroke-width="2" stroke-miterlimit="10" stroke-linecap="square"/>
<path d="M1.14978 153.231H150.85" stroke="#010101" stroke-width="2" stroke-miterlimit="10" stroke-linecap="square"/>
</svg>
