<svg width="169" height="138" viewBox="0 0 169 138" fill="none" xmlns="http://www.w3.org/2000/svg">
<path d="M100.127 58.563C96.22 58.563 92.8921 60.7374 91.1558 63.7815H84.5V27.2521H48.0377V20.584C51.2209 18.8445 53.2466 15.3656 53.2466 11.5966C53.2466 5.79832 48.6164 1.15967 42.8288 1.15967C37.0411 1.15967 32.411 5.79832 32.411 11.5966C32.411 15.5105 34.5813 18.8445 37.6199 20.584V27.2521H1.15753V95.0924C1.15753 103.79 8.10274 110.748 16.7842 110.748H84.5V74.2185H91.1558C92.8921 77.4076 96.3647 79.437 100.127 79.437C105.914 79.437 110.545 74.7983 110.545 69C110.545 63.2017 105.914 58.563 100.127 58.563Z" fill="#D4ECE1"/>
<path d="M16.7842 92.4832H152.216" stroke="#2BB673" stroke-width="1.5" stroke-miterlimit="10" stroke-linecap="square"/>
<path d="M141.798 45.5168H120.962V92.4832H141.798V45.5168Z" stroke="#2BB673" stroke-width="1.5" stroke-miterlimit="10" stroke-linecap="square"/>
<path d="M133.985 79.437H128.776V92.4832H133.985V79.437Z" stroke="#2BB673" stroke-width="1.5" stroke-miterlimit="10" stroke-linecap="square"/>
<path d="M128.776 71.6094V66.3909" stroke="#2BB673" stroke-width="1.5" stroke-miterlimit="10" stroke-linecap="square"/>
<path d="M133.985 71.6094V66.3909" stroke="#2BB673" stroke-width="1.5" stroke-miterlimit="10" stroke-linecap="square"/>
<path d="M128.776 58.563V53.3445" stroke="#2BB673" stroke-width="1.5" stroke-miterlimit="10" stroke-linecap="square"/>
<path d="M133.985 58.563V53.3445" stroke="#2BB673" stroke-width="1.5" stroke-miterlimit="10" stroke-linecap="square"/>
<path d="M102.731 92.4831C102.731 89.584 105.046 87.2646 107.94 87.2646C110.834 87.2646 113.149 89.584 113.149 92.4831" stroke="#2BB673" stroke-width="1.5" stroke-miterlimit="10" stroke-linecap="square"/>
<path d="M128.776 87.2646H133.985" stroke="#2BB673" stroke-width="1.5" stroke-miterlimit="10" stroke-linecap="square"/>
<path d="M48.0377 92.4831H27.2021V63.7815L37.6199 53.3445L48.0377 63.7815V92.4831Z" stroke="#2BB673" stroke-width="1.5" stroke-miterlimit="10" stroke-linecap="square"/>
<path d="M40.2243 79.437H35.0154V92.4832H40.2243V79.437Z" stroke="#2BB673" stroke-width="1.5" stroke-miterlimit="10" stroke-linecap="square"/>
<path d="M35.0154 71.6094V66.3909" stroke="#2BB673" stroke-width="1.5" stroke-miterlimit="10" stroke-linecap="square"/>
<path d="M40.2243 71.6094V66.3909" stroke="#2BB673" stroke-width="1.5" stroke-miterlimit="10" stroke-linecap="square"/>
<path d="M61.0599 82.0463C63.9367 82.0463 66.2688 79.7099 66.2688 76.8279C66.2688 73.9458 63.9367 71.6094 61.0599 71.6094C58.1831 71.6094 55.851 73.9458 55.851 76.8279C55.851 79.7099 58.1831 82.0463 61.0599 82.0463Z" stroke="#2BB673" stroke-width="1.5" stroke-miterlimit="10" stroke-linecap="square"/>
<path d="M48.0377 53.3445C48.0377 51.1702 49.774 49.4307 51.9443 49.4307C54.1147 49.4307 55.851 51.1702 55.851 53.3445" stroke="#2BB673" stroke-width="1.5" stroke-miterlimit="10" stroke-linecap="square"/>
<path d="M55.851 53.3446C55.851 48.9958 59.3236 45.5168 63.6644 45.5168C68.0051 45.5168 71.4777 48.9958 71.4777 53.3446" stroke="#2BB673" stroke-width="1.5" stroke-miterlimit="10" stroke-linecap="square"/>
<path d="M61.0599 82.0461V92.4831" stroke="#2BB673" stroke-width="1.5" stroke-miterlimit="10" stroke-linecap="square"/>
<path d="M35.0154 87.2646H40.2243" stroke="#2BB673" stroke-width="1.5" stroke-miterlimit="10" stroke-linecap="square"/>
<path d="M84.5 11.5967V6.37817" stroke="#010101" stroke-width="1.5" stroke-miterlimit="10" stroke-linecap="square"/>
<path d="M84.5 131.622V126.403" stroke="#010101" stroke-width="1.5" stroke-miterlimit="10" stroke-linecap="square"/>
<path d="M98.6798 13.336L99.982 8.40747" stroke="#010101" stroke-width="1.5" stroke-miterlimit="10" stroke-linecap="square"/>
<path d="M69.018 129.593L70.3202 124.519" stroke="#010101" stroke-width="1.5" stroke-miterlimit="10" stroke-linecap="square"/>
<path d="M70.3202 13.336L69.018 8.40747" stroke="#010101" stroke-width="1.5" stroke-miterlimit="10" stroke-linecap="square"/>
<path d="M99.982 129.593L98.6798 124.519" stroke="#010101" stroke-width="1.5" stroke-miterlimit="10" stroke-linecap="square"/>
<path d="M100.127 58.563C96.22 58.563 92.8921 60.7374 91.1558 63.7815H84.5V27.2521H48.0377V20.584C51.2209 18.8445 53.2466 15.3656 53.2466 11.5966C53.2466 5.79832 48.6164 1.15967 42.8288 1.15967C37.0411 1.15967 32.411 5.79832 32.411 11.5966C32.411 15.5105 34.5813 18.8445 37.6199 20.584V27.2521H1.15753V95.0924C1.15753 103.79 8.10274 110.748 16.7842 110.748H84.5V74.2185H91.1558C92.8921 77.4076 96.3647 79.437 100.127 79.437C105.914 79.437 110.545 74.7983 110.545 69C110.545 63.2017 105.914 58.563 100.127 58.563Z" stroke="#010101" stroke-width="1.5" stroke-miterlimit="10" stroke-linecap="square"/>
<path d="M84.5 74.2186V110.748H120.962V117.416C117.779 119.156 115.753 122.635 115.753 126.403C115.753 132.202 120.384 136.84 126.171 136.84C131.959 136.84 136.589 132.202 136.589 126.403C136.589 122.49 134.419 119.156 131.38 117.416V110.748H167.842V42.9077C167.842 34.2102 160.897 27.2522 152.216 27.2522H84.5V63.7816" stroke="#010101" stroke-width="1.5" stroke-miterlimit="10" stroke-linecap="square"/>
</svg>
