<svg width="172" height="167" viewBox="0 0 172 167" fill="none" xmlns="http://www.w3.org/2000/svg">
<path opacity="0.5" d="M110.306 54.5123C110.306 54.5123 114.923 52.9732 117.617 54.2558L118.899 53.9993C118.899 53.9993 118.899 46.6882 121.721 45.5338C121.721 45.5338 125.056 44.5077 124.799 56.5646C124.543 68.6214 121.849 84.2696 121.849 84.2696L122.875 85.0392C122.875 85.0392 135.573 81.063 149.041 85.1675L150.708 84.2696C150.708 84.2696 151.606 74.3933 150.965 66.954C150.324 59.5146 150.067 48.3556 150.452 45.6621C150.837 42.9686 153.53 40.0185 156.095 43.8664C158.661 47.7143 158.661 49.8948 158.661 49.8948L160.328 50.5361C160.328 50.5361 163.15 48.3556 166.356 48.4839L167.254 47.3295C167.254 47.3295 164.561 39.8902 162.509 35.5292C160.456 31.04 156.993 30.0139 151.735 31.04C146.476 32.0661 134.034 33.9901 126.339 35.2727C118.643 36.5553 112.101 38.0945 111.46 44.7643C110.819 51.434 110.306 54.5123 110.306 54.5123Z" fill="#EF3850"/>
<path opacity="0.5" d="M57.7181 18.5983C57.7181 18.5983 58.4877 30.0138 45.2766 26.5507C45.2766 26.5507 41.8136 28.6029 38.7353 26.0376C35.657 23.4724 32.0656 26.679 32.0656 26.679C32.0656 26.679 27.0634 32.0661 21.5481 26.5507C16.0328 21.0353 11.4154 27.5768 11.4154 27.5768C11.4154 27.5768 3.84787 31.9378 1.53915 25.5246C-0.769577 19.1114 3.59135 15.6482 6.54138 13.7243C9.49142 11.8003 13.4676 11.2873 18.3415 14.6221C23.2155 17.957 27.1916 17.4439 29.6286 15.6482C32.0656 13.8525 35.657 14.1091 38.9918 16.033C42.3266 17.957 44.6353 19.7527 47.5854 17.8287C50.5354 15.9048 53.2289 14.6221 57.7181 18.5983Z" fill="#EF3850"/>
<path opacity="0.5" d="M35.657 89.6566C35.657 89.6566 53.1007 85.6804 62.5921 89.6566C62.5921 89.6566 65.4139 107.614 64.2595 122.749C63.1051 137.884 58.616 154.173 58.616 154.173H50.1506C50.1506 154.173 56.3072 130.06 54.1268 113.257C51.9463 96.4546 51.305 99.2764 48.4832 98.122C48.4832 98.122 46.1745 117.746 43.994 128.392C41.8136 139.038 35.5287 154.173 35.5287 154.173H27.7047C27.7047 154.173 34.5026 131.727 35.5287 118.773C36.8113 105.946 35.657 89.6566 35.657 89.6566Z" fill="#EF3850"/>
<path d="M109.151 107.614C110.819 105.946 110.306 101.713 110.306 101.713C110.306 101.713 116.206 88.7588 117.36 75.2911C118.515 61.8233 118.515 45.0207 121.849 45.5338C125.184 46.0468 126.852 49.51 121.336 87.6044C115.693 125.827 126.082 153.532 126.082 153.532H135.06C135.06 153.532 129.16 131.343 130.315 116.207C131.469 101.072 131.982 93.7611 137.113 93.7611C137.113 93.7611 138.01 126.084 150.324 153.532H158.789C158.789 153.532 151.735 130.188 150.067 111.718C148.4 93.2481 152.376 85.2957 151.221 66.8256C150.067 48.3556 150.067 42.712 153.53 42.0706C156.865 41.5576 158.019 46.5599 161.354 57.8471C164.689 69.1344 150.965 77.215 154.3 94.659C154.3 94.659 153.787 100.303 155.967 101.97" stroke="#010101" stroke-width="1.5" stroke-miterlimit="10" stroke-linecap="round" stroke-linejoin="round"/>
<path d="M132.752 153.789L136.087 166.102H120.31L127.365 161.613C128.647 160.843 129.289 159.176 128.776 157.765L127.493 153.789" stroke="#010101" stroke-width="1.5" stroke-miterlimit="10" stroke-linecap="round" stroke-linejoin="round"/>
<path d="M121.721 85.1675C121.721 85.1675 132.752 80.9348 150.324 85.2958" stroke="#010101" stroke-width="1.5" stroke-miterlimit="10" stroke-linecap="round" stroke-linejoin="round"/>
<path d="M159.302 51.0492C159.302 51.0492 162.509 48.0991 167.254 48.3557" stroke="#010101" stroke-width="1.5" stroke-miterlimit="10" stroke-linecap="round" stroke-linejoin="round"/>
<path d="M110.306 54.5123C110.306 54.5123 114.538 52.2035 118.643 54.897" stroke="#010101" stroke-width="1.5" stroke-miterlimit="10" stroke-linecap="round" stroke-linejoin="round"/>
<path d="M129.417 49.2535V53.2296L144.552 51.4339V46.4316L129.417 49.2535Z" stroke="#010101" stroke-width="1.5" stroke-miterlimit="10" stroke-linecap="round" stroke-linejoin="round"/>
<path d="M134.804 48.2273L134.932 67.7234L139.421 67.2104L139.55 47.5859" stroke="#010101" stroke-width="1.5" stroke-miterlimit="10" stroke-linecap="round" stroke-linejoin="round"/>
<path d="M106.843 113.257C106.843 113.257 108.125 111.205 109.151 107.87" stroke="#010101" stroke-width="1.5" stroke-miterlimit="10" stroke-linecap="round" stroke-linejoin="round"/>
<path d="M103.251 113.514C103.251 113.514 105.56 110.692 106.586 107.87" stroke="#010101" stroke-width="1.5" stroke-miterlimit="10" stroke-linecap="round" stroke-linejoin="round"/>
<path d="M100.43 112.359C100.43 112.359 103.508 108.896 104.919 106.716" stroke="#010101" stroke-width="1.5" stroke-miterlimit="10" stroke-linecap="round" stroke-linejoin="round"/>
<path d="M161.354 104.792C161.354 104.792 158.532 104.792 155.967 102.227" stroke="#010101" stroke-width="1.5" stroke-miterlimit="10" stroke-linecap="round" stroke-linejoin="round"/>
<path d="M159.045 101.714C159.045 101.714 161.867 103.125 165.202 103.125" stroke="#010101" stroke-width="1.5" stroke-miterlimit="10" stroke-linecap="round" stroke-linejoin="round"/>
<path d="M160.713 99.9178C160.713 99.9178 164.176 100.816 166.998 99.7896" stroke="#010101" stroke-width="1.5" stroke-miterlimit="10" stroke-linecap="round" stroke-linejoin="round"/>
<path d="M161.354 97.4808C161.354 97.4808 164.176 97.9939 166.356 96.3264" stroke="#010101" stroke-width="1.5" stroke-miterlimit="10" stroke-linecap="round" stroke-linejoin="round"/>
<path d="M124.799 158.663C124.799 158.663 130.058 164.691 134.676 161.356" stroke="#010101" stroke-width="1.5" stroke-miterlimit="10" stroke-linecap="round" stroke-linejoin="round"/>
<path d="M156.993 153.789L161.354 166.102H144.552L151.606 161.613C152.889 160.843 153.53 159.176 153.017 157.765L151.735 153.789" stroke="#010101" stroke-width="1.5" stroke-miterlimit="10" stroke-linecap="round" stroke-linejoin="round"/>
<path d="M149.041 158.663C149.041 158.663 154.3 164.691 158.917 161.356" stroke="#010101" stroke-width="1.5" stroke-miterlimit="10" stroke-linecap="round" stroke-linejoin="round"/>
<path d="M161.354 97.4808C161.354 94.659 157.763 92.9916 157.763 92.9916C156.48 85.6805 162.765 79.2673 166.741 73.6237C170.717 67.9801 172.385 65.1582 170.076 57.3341C167.767 49.51 163.919 35.4009 159.943 32.0661C155.967 28.7312 148.656 32.0661 136.984 33.7335C125.184 35.4009 118.515 36.0423 114.025 39.3771C109.536 42.712 110.049 61.3103 110.049 73.6237C110.049 85.9371 106.971 99.7896 106.971 99.7896C106.971 99.7896 102.995 103.124 103.636 105.433C102.482 107.101 98.6339 110.436 98.6339 110.436" stroke="#010101" stroke-width="1.5" stroke-miterlimit="10" stroke-linecap="round" stroke-linejoin="round"/>
<path d="M100.173 100.944C100.173 100.944 102.995 102.098 106.971 99.7896" stroke="#010101" stroke-width="1.5" stroke-miterlimit="10" stroke-linecap="round" stroke-linejoin="round"/>
<path d="M141.73 32.9639C141.73 32.9639 142.756 19.881 146.604 5.64363C146.989 4.36099 146.091 3.07835 144.808 2.82182L134.291 1.02612C134.291 1.02612 123.004 20.1375 127.493 25.1398C130.956 28.9877 135.958 25.6529 135.958 25.6529L134.291 34.1183" stroke="#010101" stroke-width="1.5" stroke-miterlimit="10" stroke-linecap="round" stroke-linejoin="round"/>
<path d="M129.93 10.0046L141.217 11.6721C141.217 11.6721 138.908 18.4701 143.526 20.1375" stroke="#010101" stroke-width="1.5" stroke-miterlimit="10" stroke-linecap="round" stroke-linejoin="round"/>
<path d="M135.958 20.394C135.573 21.9332 133.906 22.9593 132.367 22.831C130.828 22.7028 129.93 21.2919 130.315 19.7527" stroke="#010101" stroke-width="1.5" stroke-miterlimit="10" stroke-linecap="round" stroke-linejoin="round"/>
<path d="M74.5205 110.82C72.9814 109.281 73.4944 105.305 73.4944 105.305C73.4944 105.305 67.9791 93.1198 66.8248 80.2934C65.6704 67.467 65.7987 51.6905 62.5921 52.2035C59.3855 52.7166 57.8464 55.9232 63.1051 91.9654C68.3639 128.008 58.616 154.302 58.616 154.302H50.1506C50.1506 154.302 55.6659 133.395 54.6398 119.029C53.6137 104.664 53.1007 97.7373 48.2267 97.7373C48.2267 97.7373 47.4571 128.264 35.7852 154.302H27.833C27.833 154.302 34.5026 132.24 36.0418 114.796C37.5809 97.3525 33.9896 89.785 35.0157 72.341C36.0418 54.8971 36.0418 49.51 32.8352 48.9969C29.6286 48.4839 28.6025 53.2297 25.396 63.8756C22.1894 74.5215 35.2722 82.0891 32.0656 98.6352C32.0656 98.6352 32.5787 103.894 30.5265 105.561" stroke="#010101" stroke-width="1.5" stroke-miterlimit="10" stroke-linecap="round" stroke-linejoin="round"/>
<path d="M52.2028 154.43L49.1245 165.974H64.003L57.3333 161.741C56.0507 160.972 55.5377 159.432 56.0507 158.15L57.2051 154.43" stroke="#010101" stroke-width="1.5" stroke-miterlimit="10" stroke-linecap="round" stroke-linejoin="round"/>
<path d="M62.7204 89.5284C62.7204 89.5284 52.3311 85.5522 35.657 89.6566" stroke="#010101" stroke-width="1.5" stroke-miterlimit="10" stroke-linecap="round" stroke-linejoin="round"/>
<path d="M76.701 116.079C76.701 116.079 75.4183 114.027 74.5205 111.077" stroke="#010101" stroke-width="1.5" stroke-miterlimit="10" stroke-linecap="round" stroke-linejoin="round"/>
<path d="M80.1641 116.336C80.1641 116.336 77.9836 113.642 76.9575 111.077" stroke="#010101" stroke-width="1.5" stroke-miterlimit="10" stroke-linecap="round" stroke-linejoin="round"/>
<path d="M82.7293 115.31C82.7293 115.31 79.7793 112.103 78.4966 110.051" stroke="#010101" stroke-width="1.5" stroke-miterlimit="10" stroke-linecap="round" stroke-linejoin="round"/>
<path d="M25.1395 108.127C25.1395 108.127 27.833 108.127 30.1417 105.69" stroke="#010101" stroke-width="1.5" stroke-miterlimit="10" stroke-linecap="round" stroke-linejoin="round"/>
<path d="M27.3199 105.177C27.3199 105.177 24.6264 106.459 21.4198 106.459" stroke="#010101" stroke-width="1.5" stroke-miterlimit="10" stroke-linecap="round" stroke-linejoin="round"/>
<path d="M25.7808 103.509C25.7808 103.509 22.4459 104.407 19.8807 103.381" stroke="#010101" stroke-width="1.5" stroke-miterlimit="10" stroke-linecap="round" stroke-linejoin="round"/>
<path d="M25.1395 101.2C25.1395 101.2 22.4459 101.713 20.3937 100.174" stroke="#010101" stroke-width="1.5" stroke-miterlimit="10" stroke-linecap="round" stroke-linejoin="round"/>
<path d="M56.8203 161.485C55.0246 162.511 52.5876 163.28 50.2789 161.741" stroke="#010101" stroke-width="1.5" stroke-miterlimit="10" stroke-linecap="round" stroke-linejoin="round"/>
<path d="M29.3721 154.43L25.2677 165.974H41.1722L34.5026 161.741C33.22 160.972 32.7069 159.432 33.22 158.15L34.3743 154.43" stroke="#010101" stroke-width="1.5" stroke-miterlimit="10" stroke-linecap="round" stroke-linejoin="round"/>
<path d="M33.8613 161.485C32.0656 162.511 29.7569 163.152 27.5764 161.613" stroke="#010101" stroke-width="1.5" stroke-miterlimit="10" stroke-linecap="round" stroke-linejoin="round"/>
<path d="M25.1394 101.2C25.1394 98.5069 28.6025 96.9678 28.6025 96.9678C29.7569 90.0415 23.8568 84.0131 20.1372 78.626C16.4176 73.2389 14.8784 70.6736 16.9306 63.2343C18.9828 55.7949 22.8307 42.5837 26.4221 39.3771C30.0134 36.1705 37.0679 39.3771 48.2267 40.9163C59.3855 42.4555 65.7986 43.0968 70.0313 46.1751C74.264 49.2535 73.7509 66.8257 73.7509 78.4977C73.7509 90.1698 76.701 103.124 76.701 103.124C76.701 103.124 80.4206 106.331 79.9075 108.383C80.9336 109.922 84.6532 113.129 84.6532 113.129" stroke="#010101" stroke-width="1.5" stroke-miterlimit="10" stroke-linecap="round" stroke-linejoin="round"/>
<path d="M83.1141 104.407C83.1141 104.407 80.4206 105.433 76.701 103.381" stroke="#010101" stroke-width="1.5" stroke-miterlimit="10" stroke-linecap="round" stroke-linejoin="round"/>
<path d="M50.6637 41.0446L50.4072 35.2727C50.4072 35.2727 54.255 38.6076 57.5899 35.7858C60.7964 33.0922 61.566 23.6007 57.9746 19.368C53.8702 14.6222 49.5093 16.1614 47.7136 17.9571C45.4049 20.2658 45.2767 25.0116 45.0201 30.2704C44.7636 36.1706 44.6353 40.1468 44.6353 40.1468" stroke="#010101" stroke-width="1.5" stroke-miterlimit="10" stroke-linecap="round" stroke-linejoin="round"/>
<path d="M57.7181 19.3679C57.7181 19.3679 58.4877 30.5269 45.4049 26.8072" stroke="#010101" stroke-width="1.5" stroke-miterlimit="10" stroke-linecap="round" stroke-linejoin="round"/>
<path d="M47.8419 18.0851C47.8419 18.0851 45.0201 20.5222 40.6592 17.059C36.2983 13.5959 32.8352 13.8524 29.3721 15.9047C25.909 17.9569 22.8307 17.5721 19.2394 15.0068C15.648 12.4415 11.8001 10.5176 6.1566 13.7242C0.51305 16.9308 -0.256525 22.8309 2.56525 26.8071C5.38702 30.7833 9.87621 28.4745 12.3132 26.6788C14.7502 24.8831 18.4698 23.344 21.5481 26.6788C24.6264 30.0137 28.2177 30.142 32.0656 26.9354C35.9135 23.7288 38.094 25.3962 39.5048 26.8071C40.9157 28.218 43.0962 28.4745 45.1484 26.9354" stroke="#010101" stroke-width="1.5" stroke-miterlimit="10" stroke-linecap="round" stroke-linejoin="round"/>
<path d="M55.6659 17.7004C55.6659 17.7004 53.4854 27.192 45.6614 24.4984" stroke="#010101" stroke-width="1.5" stroke-miterlimit="10" stroke-linecap="round" stroke-linejoin="round"/>
<path d="M52.8441 16.5461C52.8441 16.5461 51.4332 22.9594 46.3027 21.4202" stroke="#010101" stroke-width="1.5" stroke-miterlimit="10" stroke-linecap="round" stroke-linejoin="round"/>
<path d="M51.5615 30.9116C51.9463 32.4508 53.4855 33.6052 55.0246 33.4769C56.5638 33.3487 57.4616 32.066 57.0768 30.5269" stroke="#010101" stroke-width="1.5" stroke-miterlimit="10" stroke-linecap="round" stroke-linejoin="round"/>
<path d="M24.4981 84.3978C24.4981 84.3978 26.4221 81.1912 29.6286 81.1912" stroke="#010101" stroke-width="1.5" stroke-miterlimit="10" stroke-linecap="round" stroke-linejoin="round"/>
<path d="M68.4922 89.785C68.4922 89.785 71.0574 88.6306 74.3922 89.6567" stroke="#010101" stroke-width="1.5" stroke-miterlimit="10" stroke-linecap="round" stroke-linejoin="round"/>
<path d="M48.868 41.4294C48.868 41.4294 48.6115 59.643 50.2789 87.8611" stroke="#010101" stroke-width="1.5" stroke-miterlimit="10" stroke-linecap="round" stroke-linejoin="round"/>
<path d="M45.1484 74.5215C45.1484 74.5215 45.6614 79.5238 41.8136 82.3456" stroke="#010101" stroke-width="1.5" stroke-miterlimit="10" stroke-linecap="round" stroke-linejoin="round"/>
<path d="M53.1007 74.5215C53.1007 74.5215 54.255 80.1651 57.0768 82.3456" stroke="#010101" stroke-width="1.5" stroke-miterlimit="10" stroke-linecap="round" stroke-linejoin="round"/>
<path d="M34.5026 163.794L35.657 162.639" stroke="#010101" stroke-width="1.5" stroke-miterlimit="10" stroke-linecap="round" stroke-linejoin="round"/>
<path d="M57.5898 163.794L58.7442 162.639" stroke="#010101" stroke-width="1.5" stroke-miterlimit="10" stroke-linecap="round" stroke-linejoin="round"/>
</svg>
