<svg width="180" height="200" viewBox="0 0 180 200" fill="none" xmlns="http://www.w3.org/2000/svg">
<path opacity="0.5" d="M114.416 70.4862C114.416 70.4862 119.034 68.947 121.727 70.2297L123.01 69.9732C123.01 69.9732 123.01 62.6621 125.832 61.5077C125.832 61.5077 129.166 60.4816 128.91 72.5384C128.653 84.5953 125.96 100.243 125.96 100.243L126.986 101.013C126.986 101.013 139.684 97.0369 153.152 101.141L154.819 100.243C154.819 100.243 155.717 90.3672 155.076 82.9278C154.434 75.4885 154.178 64.3295 154.562 61.636C154.947 58.9424 157.641 55.9924 160.206 59.8403C162.771 63.6882 162.771 65.8687 162.771 65.8687L164.439 66.51C164.439 66.51 167.26 64.3295 170.467 64.4578L171.365 63.3034C171.365 63.3034 168.671 55.8641 166.619 51.5031C164.567 47.0139 161.104 45.9877 155.845 47.0139C150.586 48.04 138.145 49.9639 130.449 51.2466C122.753 52.5292 116.212 54.0684 115.571 60.7381C114.929 67.4079 114.416 70.4862 114.416 70.4862Z" fill="#EF3850"/>
<path opacity="0.5" d="M61.8287 34.5722C61.8287 34.5722 62.5982 45.9877 49.3872 42.5246C49.3872 42.5246 45.9241 44.5768 42.8458 42.0115C39.7675 39.4462 36.1762 42.6528 36.1762 42.6528C36.1762 42.6528 31.1739 48.0399 25.6587 42.5246C20.1434 37.0092 15.5259 43.5507 15.5259 43.5507C15.5259 43.5507 7.95844 47.9117 5.64971 41.4985C3.34099 35.0853 7.70191 31.6221 10.6519 29.6982C13.602 27.7742 17.5781 27.2611 22.4521 30.596C27.3261 33.9309 31.3022 33.4178 33.7392 31.6221C36.1762 29.8264 39.7675 30.0829 43.1024 32.0069C46.4372 33.9309 48.7459 35.7266 51.6959 33.8026C54.646 31.8786 57.3395 30.596 61.8287 34.5722Z" fill="#EF3850"/>
<path opacity="0.5" d="M39.7675 105.63C39.7675 105.63 57.2112 101.654 66.7027 105.63C66.7027 105.63 69.5244 123.587 68.3701 138.723C67.2157 153.858 62.7265 170.147 62.7265 170.147H54.2612C54.2612 170.147 60.4178 146.034 58.2373 129.231C56.0569 112.428 55.4156 115.25 52.5938 114.096C52.5938 114.096 50.2851 133.72 48.1046 144.366C45.9241 155.012 39.6393 170.147 39.6393 170.147H31.8153C31.8153 170.147 38.6132 147.701 39.6393 134.746C40.9219 121.92 39.7675 105.63 39.7675 105.63Z" fill="#EF3850"/>
<path d="M113.262 123.588C114.929 121.92 114.416 117.687 114.416 117.687C114.416 117.687 120.316 104.733 121.471 91.2649C122.625 77.7972 122.625 60.9946 125.96 61.5076C129.295 62.0207 130.962 65.4838 125.447 103.578C119.803 141.801 130.193 169.506 130.193 169.506H139.171C139.171 169.506 133.271 147.316 134.425 132.181C135.58 117.046 136.093 109.735 141.223 109.735C141.223 109.735 142.121 142.058 154.434 169.506H162.9C162.9 169.506 155.845 146.162 154.178 127.692C152.51 109.222 156.486 101.27 155.332 82.7995C154.178 64.3295 154.178 58.6858 157.641 58.0445C160.976 57.5314 162.13 62.5338 165.465 73.821C168.8 85.1083 155.076 93.1889 158.41 110.633C158.41 110.633 157.897 116.276 160.078 117.944" stroke="#010101" stroke-width="1.5" stroke-miterlimit="10" stroke-linecap="round" stroke-linejoin="round"/>
<path d="M136.862 169.763L140.197 182.076H124.421L131.475 177.587C132.758 176.817 133.399 175.15 132.886 173.739L131.603 169.763" stroke="#010101" stroke-width="1.5" stroke-miterlimit="10" stroke-linecap="round" stroke-linejoin="round"/>
<path d="M125.832 101.141C125.832 101.141 136.862 96.9087 154.434 101.27" stroke="#010101" stroke-width="1.5" stroke-miterlimit="10" stroke-linecap="round" stroke-linejoin="round"/>
<path d="M163.413 67.0231C163.413 67.0231 166.619 64.073 171.365 64.3295" stroke="#010101" stroke-width="1.5" stroke-miterlimit="10" stroke-linecap="round" stroke-linejoin="round"/>
<path d="M114.416 70.4861C114.416 70.4861 118.649 68.1774 122.753 70.8709" stroke="#010101" stroke-width="1.5" stroke-miterlimit="10" stroke-linecap="round" stroke-linejoin="round"/>
<path d="M133.527 65.2273V69.2035L148.662 67.4078V62.4055L133.527 65.2273Z" stroke="#010101" stroke-width="1.5" stroke-miterlimit="10" stroke-linecap="round" stroke-linejoin="round"/>
<path d="M138.914 64.2011L139.043 83.6973L143.532 83.1842L143.66 63.5598" stroke="#010101" stroke-width="1.5" stroke-miterlimit="10" stroke-linecap="round" stroke-linejoin="round"/>
<path d="M110.953 129.231C110.953 129.231 112.236 127.179 113.262 123.844" stroke="#010101" stroke-width="1.5" stroke-miterlimit="10" stroke-linecap="round" stroke-linejoin="round"/>
<path d="M107.362 129.488C107.362 129.488 109.671 126.666 110.697 123.844" stroke="#010101" stroke-width="1.5" stroke-miterlimit="10" stroke-linecap="round" stroke-linejoin="round"/>
<path d="M104.54 128.333C104.54 128.333 107.618 124.87 109.029 122.69" stroke="#010101" stroke-width="1.5" stroke-miterlimit="10" stroke-linecap="round" stroke-linejoin="round"/>
<path d="M165.465 120.766C165.465 120.766 162.643 120.766 160.078 118.2" stroke="#010101" stroke-width="1.5" stroke-miterlimit="10" stroke-linecap="round" stroke-linejoin="round"/>
<path d="M163.156 117.688C163.156 117.688 165.978 119.098 169.313 119.098" stroke="#010101" stroke-width="1.5" stroke-miterlimit="10" stroke-linecap="round" stroke-linejoin="round"/>
<path d="M164.823 115.892C164.823 115.892 168.287 116.79 171.108 115.763" stroke="#010101" stroke-width="1.5" stroke-miterlimit="10" stroke-linecap="round" stroke-linejoin="round"/>
<path d="M165.465 113.455C165.465 113.455 168.287 113.968 170.467 112.3" stroke="#010101" stroke-width="1.5" stroke-miterlimit="10" stroke-linecap="round" stroke-linejoin="round"/>
<path d="M128.91 174.637C128.91 174.637 134.169 180.665 138.786 177.33" stroke="#010101" stroke-width="1.5" stroke-miterlimit="10" stroke-linecap="round" stroke-linejoin="round"/>
<path d="M161.104 169.763L165.465 182.076H148.662L155.717 177.587C156.999 176.817 157.641 175.15 157.128 173.739L155.845 169.763" stroke="#010101" stroke-width="1.5" stroke-miterlimit="10" stroke-linecap="round" stroke-linejoin="round"/>
<path d="M153.152 174.637C153.152 174.637 158.41 180.665 163.028 177.33" stroke="#010101" stroke-width="1.5" stroke-miterlimit="10" stroke-linecap="round" stroke-linejoin="round"/>
<path d="M165.465 113.455C165.465 110.633 161.873 108.965 161.873 108.965C160.591 101.654 166.876 95.2412 170.852 89.5976C174.828 83.9539 176.495 81.1321 174.187 73.308C171.878 65.4839 168.03 51.3748 164.054 48.04C160.078 44.7051 152.767 48.04 141.095 49.7074C129.295 51.3748 122.625 52.0161 118.136 55.351C113.647 58.6859 114.16 77.2842 114.16 89.5976C114.16 101.911 111.081 115.763 111.081 115.763C111.081 115.763 107.105 119.098 107.747 121.407C106.592 123.075 102.744 126.409 102.744 126.409" stroke="#010101" stroke-width="1.5" stroke-miterlimit="10" stroke-linecap="round" stroke-linejoin="round"/>
<path d="M104.284 116.918C104.284 116.918 107.105 118.072 111.081 115.763" stroke="#010101" stroke-width="1.5" stroke-miterlimit="10" stroke-linecap="round" stroke-linejoin="round"/>
<path d="M145.841 48.9378C145.841 48.9378 146.867 35.8548 150.715 21.6175C151.099 20.3349 150.202 19.0522 148.919 18.7957L138.401 17C138.401 17 127.114 36.1114 131.603 41.1137C135.067 44.9616 140.069 41.6267 140.069 41.6267L138.401 50.0922" stroke="#010101" stroke-width="1.5" stroke-miterlimit="10" stroke-linecap="round" stroke-linejoin="round"/>
<path d="M134.04 25.9785L145.328 27.646C145.328 27.646 143.019 34.444 147.636 36.1114" stroke="#010101" stroke-width="1.5" stroke-miterlimit="10" stroke-linecap="round" stroke-linejoin="round"/>
<path d="M140.069 36.3679C139.684 37.9071 138.017 38.9332 136.477 38.8049C134.938 38.6766 134.04 37.2657 134.425 35.7266" stroke="#010101" stroke-width="1.5" stroke-miterlimit="10" stroke-linecap="round" stroke-linejoin="round"/>
<path d="M78.6311 126.794C77.0919 125.255 77.605 121.279 77.605 121.279C77.605 121.279 72.0897 109.094 70.9353 96.2673C69.781 83.4409 69.9092 67.6644 66.7027 68.1774C63.4961 68.6905 61.9569 71.8971 67.2157 107.939C72.4745 143.982 62.7265 170.276 62.7265 170.276H54.2612C54.2612 170.276 59.7765 149.369 58.7504 135.003C57.7243 120.637 57.2112 113.711 52.3373 113.711C52.3373 113.711 51.5677 144.238 39.8958 170.276H31.9435C31.9435 170.276 38.6132 148.214 40.1523 130.77C41.6915 113.326 38.1001 105.759 39.1262 88.3149C40.1523 70.871 40.1523 65.4839 36.9458 64.9708C33.7392 64.4578 32.7131 69.2035 29.5065 79.8495C26.3 90.4954 39.3827 98.063 36.1762 114.609C36.1762 114.609 36.6892 119.868 34.637 121.535" stroke="#010101" stroke-width="1.5" stroke-miterlimit="10" stroke-linecap="round" stroke-linejoin="round"/>
<path d="M56.3134 170.404L53.2351 181.948H68.1136L61.4439 177.715C60.1613 176.946 59.6482 175.406 60.1613 174.124L61.3156 170.404" stroke="#010101" stroke-width="1.5" stroke-miterlimit="10" stroke-linecap="round" stroke-linejoin="round"/>
<path d="M66.8309 105.502C66.8309 105.502 56.4417 101.526 39.7675 105.631" stroke="#010101" stroke-width="1.5" stroke-miterlimit="10" stroke-linecap="round" stroke-linejoin="round"/>
<path d="M80.8115 132.053C80.8115 132.053 79.5289 130.001 78.6311 127.051" stroke="#010101" stroke-width="1.5" stroke-miterlimit="10" stroke-linecap="round" stroke-linejoin="round"/>
<path d="M84.2746 132.31C84.2746 132.31 82.0942 129.616 81.0681 127.051" stroke="#010101" stroke-width="1.5" stroke-miterlimit="10" stroke-linecap="round" stroke-linejoin="round"/>
<path d="M86.8399 131.283C86.8399 131.283 83.8898 128.077 82.6072 126.025" stroke="#010101" stroke-width="1.5" stroke-miterlimit="10" stroke-linecap="round" stroke-linejoin="round"/>
<path d="M29.25 124.101C29.25 124.101 31.9435 124.101 34.2523 121.664" stroke="#010101" stroke-width="1.5" stroke-miterlimit="10" stroke-linecap="round" stroke-linejoin="round"/>
<path d="M31.4305 121.151C31.4305 121.151 28.737 122.433 25.5304 122.433" stroke="#010101" stroke-width="1.5" stroke-miterlimit="10" stroke-linecap="round" stroke-linejoin="round"/>
<path d="M29.8913 119.483C29.8913 119.483 26.5565 120.381 23.9912 119.355" stroke="#010101" stroke-width="1.5" stroke-miterlimit="10" stroke-linecap="round" stroke-linejoin="round"/>
<path d="M29.25 117.174C29.25 117.174 26.5565 117.687 24.5043 116.148" stroke="#010101" stroke-width="1.5" stroke-miterlimit="10" stroke-linecap="round" stroke-linejoin="round"/>
<path d="M60.9308 177.458C59.1352 178.485 56.6982 179.254 54.3895 177.715" stroke="#010101" stroke-width="1.5" stroke-miterlimit="10" stroke-linecap="round" stroke-linejoin="round"/>
<path d="M33.4827 170.404L29.3783 181.948H45.2828L38.6132 177.715C37.3305 176.946 36.8175 175.406 37.3305 174.124L38.4849 170.404" stroke="#010101" stroke-width="1.5" stroke-miterlimit="10" stroke-linecap="round" stroke-linejoin="round"/>
<path d="M37.9719 177.458C36.1762 178.485 33.8675 179.126 31.687 177.587" stroke="#010101" stroke-width="1.5" stroke-miterlimit="10" stroke-linecap="round" stroke-linejoin="round"/>
<path d="M29.25 117.174C29.25 114.481 32.7131 112.942 32.7131 112.942C33.8675 106.015 27.9674 99.987 24.2478 94.5999C20.5282 89.2128 18.989 86.6475 21.0412 79.2081C23.0934 71.7688 26.9413 58.5576 30.5326 55.351C34.124 52.1444 41.1784 55.351 52.3373 56.8902C63.4961 58.4293 69.9092 59.0707 74.1419 62.149C78.3745 65.2273 77.8615 82.7995 77.8615 94.4716C77.8615 106.144 80.8115 119.098 80.8115 119.098C80.8115 119.098 84.5311 122.305 84.0181 124.357C85.0442 125.896 88.7638 129.103 88.7638 129.103" stroke="#010101" stroke-width="1.5" stroke-miterlimit="10" stroke-linecap="round" stroke-linejoin="round"/>
<path d="M87.2247 120.381C87.2247 120.381 84.5311 121.407 80.8115 119.355" stroke="#010101" stroke-width="1.5" stroke-miterlimit="10" stroke-linecap="round" stroke-linejoin="round"/>
<path d="M54.7742 57.0185L54.5177 51.2466C54.5177 51.2466 58.3656 54.5815 61.7004 51.7597C64.907 49.0661 65.6766 39.5746 62.0852 35.3418C57.9808 30.5961 53.6199 32.1352 51.8242 33.9309C49.5155 36.2397 49.3872 40.9855 49.1307 46.2443C48.8742 52.1445 48.7459 56.1206 48.7459 56.1206" stroke="#010101" stroke-width="1.5" stroke-miterlimit="10" stroke-linecap="round" stroke-linejoin="round"/>
<path d="M61.8287 35.3418C61.8287 35.3418 62.5983 46.5008 49.5155 42.7811" stroke="#010101" stroke-width="1.5" stroke-miterlimit="10" stroke-linecap="round" stroke-linejoin="round"/>
<path d="M51.9525 34.059C51.9525 34.059 49.1307 36.496 44.7698 33.0329C40.4088 29.5698 36.9458 29.8263 33.4827 31.8785C30.0196 33.9308 26.9413 33.546 23.3499 30.9807C19.7586 28.4154 15.9107 26.4914 10.2672 29.698C4.62362 32.9046 3.85404 38.8048 6.67581 42.781C9.49759 46.7572 13.9868 44.4484 16.4238 42.6527C18.8608 40.857 22.5804 39.3179 25.6587 42.6527C28.737 45.9876 32.3283 46.1159 36.1762 42.9093C40.0241 39.7026 42.2045 41.3701 43.6154 42.781C45.0263 44.1919 47.2068 44.4484 49.259 42.9093" stroke="#010101" stroke-width="1.5" stroke-miterlimit="10" stroke-linecap="round" stroke-linejoin="round"/>
<path d="M59.7765 33.6743C59.7765 33.6743 57.596 43.1659 49.772 40.4723" stroke="#010101" stroke-width="1.5" stroke-miterlimit="10" stroke-linecap="round" stroke-linejoin="round"/>
<path d="M56.9547 32.52C56.9547 32.52 55.5438 38.9332 50.4133 37.3941" stroke="#010101" stroke-width="1.5" stroke-miterlimit="10" stroke-linecap="round" stroke-linejoin="round"/>
<path d="M55.6721 46.8855C56.0569 48.4247 57.596 49.5791 59.1352 49.4508C60.6743 49.3225 61.5722 48.0399 61.1874 46.5007" stroke="#010101" stroke-width="1.5" stroke-miterlimit="10" stroke-linecap="round" stroke-linejoin="round"/>
<path d="M28.6087 100.372C28.6087 100.372 30.5326 97.165 33.7392 97.165" stroke="#010101" stroke-width="1.5" stroke-miterlimit="10" stroke-linecap="round" stroke-linejoin="round"/>
<path d="M72.6027 105.759C72.6027 105.759 75.168 104.604 78.5028 105.631" stroke="#010101" stroke-width="1.5" stroke-miterlimit="10" stroke-linecap="round" stroke-linejoin="round"/>
<path d="M52.9786 57.4033C52.9786 57.4033 52.722 75.6168 54.3895 103.835" stroke="#010101" stroke-width="1.5" stroke-miterlimit="10" stroke-linecap="round" stroke-linejoin="round"/>
<path d="M49.259 90.4954C49.259 90.4954 49.772 95.4977 45.9241 98.3195" stroke="#010101" stroke-width="1.5" stroke-miterlimit="10" stroke-linecap="round" stroke-linejoin="round"/>
<path d="M57.2112 90.4954C57.2112 90.4954 58.3656 96.139 61.1874 98.3195" stroke="#010101" stroke-width="1.5" stroke-miterlimit="10" stroke-linecap="round" stroke-linejoin="round"/>
<path d="M38.6132 179.767L39.7675 178.613" stroke="#010101" stroke-width="1.5" stroke-miterlimit="10" stroke-linecap="round" stroke-linejoin="round"/>
<path d="M61.7004 179.767L62.8548 178.613" stroke="#010101" stroke-width="1.5" stroke-miterlimit="10" stroke-linecap="round" stroke-linejoin="round"/>
</svg>
