<svg width="74" height="146" viewBox="0 0 74 146" fill="none" xmlns="http://www.w3.org/2000/svg">
<g clip-path="url(#clip0)">
<path d="M6.33535 35.1598C6.28805 35.2072 6.24075 35.2547 6.1698 35.3022C5.36568 35.9195 4.56155 36.5606 3.80473 37.2492C3.00061 37.9852 2.24378 38.745 1.48696 39.5048C-0.0266829 41.0243 -1.37477 42.6626 -2.81747 44.2534C-3.55064 45.0607 -4 46.0342 -4 47.1501C-4 48.2423 -3.57429 49.287 -2.79381 50.0705C-1.25652 51.6138 1.48696 51.7325 3.00061 50.0705C4.41965 48.5272 5.83869 46.9839 7.37599 45.5118C8.96058 43.9922 10.6398 42.5676 12.0352 40.8819C12.248 40.6207 12.4609 40.3358 12.6737 40.0746C13.0285 39.4335 13.2177 38.7687 13.2177 38.0327C13.2177 36.9642 12.792 35.9195 12.0352 35.1835C11.2784 34.4237 10.2614 33.9963 9.19709 33.9963C8.0382 33.9726 7.18678 34.4475 6.33535 35.1598Z" fill="black"/>
<path d="M38.0037 24.309C36.963 25.2112 35.9697 26.1847 35 27.1819C34.1013 28.0842 33.1553 28.9864 32.2566 29.9124C30.3645 31.8356 28.4251 33.6638 26.3439 35.3971C25.7999 35.8719 25.5161 36.7267 25.5161 37.4153C25.5161 38.175 25.8236 38.9111 26.3439 39.4334C26.8879 39.9795 27.621 40.2644 28.3542 40.2644C29.1583 40.2644 29.7732 39.932 30.3645 39.4334C32.4458 37.7002 34.3851 35.8719 36.2772 33.9487C38.1456 32.0255 39.8957 30.0074 41.8351 28.1791C42.923 27.1582 42.8521 25.3299 41.8351 24.309C41.3148 23.7866 40.6289 23.5017 39.8957 23.5017C39.1626 23.5017 38.5476 23.8341 38.0037 24.309Z" fill="black"/>
<path d="M25.4924 51.6613C24.7119 51.875 24.026 52.2786 23.4584 52.8247C21.7083 54.1306 20.0054 55.484 18.4445 57.0036C17.0018 58.4044 15.701 59.9477 14.4238 61.4673C14.1637 61.8234 13.9035 62.1558 13.6197 62.512C13.1703 63.3193 12.9338 64.174 12.9338 65.1C12.9338 66.4534 13.4778 67.7593 14.4238 68.709C15.3699 69.6587 16.6707 70.2048 18.0187 70.2048C19.2722 70.2048 20.7859 69.7062 21.6136 68.709C22.9144 67.1657 24.2862 65.7411 25.7525 64.364C27.3135 62.8919 28.8035 61.3723 30.1279 59.6865C30.3881 59.3541 30.6246 59.0455 30.8847 58.7131C31.3104 57.9533 31.5469 57.146 31.5469 56.2913C31.5469 55.0329 31.0266 53.7982 30.1516 52.896C29.2528 51.9937 28.023 51.4951 26.7695 51.4951C26.3438 51.5426 25.9181 51.5901 25.4924 51.6613Z" fill="black"/>
<path d="M58.4849 35.5394C57.87 35.7056 57.326 36.0143 56.8767 36.4654C55.0319 37.9138 53.2345 39.3858 51.4607 40.9292C49.7105 42.4487 48.1496 44.2057 46.4231 45.749C45.1459 46.8887 45.2642 49.0256 46.4231 50.189C47.0143 50.7826 47.8185 51.115 48.6462 51.115C49.5213 51.115 50.2308 50.7589 50.8458 50.189C51.5789 49.5479 52.2648 48.8831 52.998 48.2421C53.5892 47.696 54.2278 47.1974 54.8427 46.6988C56.9476 45.1317 59.1945 43.7546 61.2757 42.1875C61.5122 41.9976 61.7724 41.8076 62.0089 41.6177C62.4582 41.1666 62.7657 40.6205 62.9313 40.0032C63.1914 39.0534 63.0495 38.0325 62.5765 37.2015C62.1035 36.3942 61.323 35.7769 60.4006 35.5157C60.0695 35.4207 59.7621 35.397 59.431 35.397C59.1235 35.397 58.7924 35.4445 58.4849 35.5394Z" fill="black"/>
<path d="M51.7919 58.2856C51.0115 58.4993 50.3492 58.903 49.7816 59.4728C47.6767 61.1823 45.6428 62.9631 43.6797 64.8388C41.5512 66.857 39.5409 68.9701 37.365 70.9408C35.5675 72.5791 35.7095 75.5945 37.365 77.2565C38.1928 78.0875 39.328 78.5624 40.5105 78.5624C41.7404 78.5624 42.781 78.0638 43.6561 77.2565C45.832 75.2858 47.9369 73.2439 50.1364 71.3207C52.1704 69.5399 54.1334 67.6642 56.191 65.931C57.066 65.1949 57.5154 63.8178 57.5154 62.7019C57.5154 61.491 57.0424 60.3276 56.191 59.4728C55.3395 58.6181 54.1807 58.1432 52.9745 58.1432C52.6197 58.1669 52.2177 58.2382 51.7919 58.2856Z" fill="black"/>
<path d="M20.6439 79.5356C19.4851 80.3429 18.3735 81.1739 17.3328 82.1236C16.576 82.8122 15.9375 83.6432 15.2989 84.4267C13.8562 86.1125 12.4608 87.8457 11.0181 89.5315C10.2376 90.4338 9.74097 91.3835 9.74097 92.6181C9.74097 93.7578 10.1903 94.8737 11.0181 95.7048C11.8222 96.512 12.9338 96.9869 14.0927 96.9869C15.157 96.9869 16.4341 96.5595 17.1673 95.7048C18.5863 94.0427 20.029 92.3807 21.4717 90.7187C22.0866 90.0064 22.7016 89.2941 23.3401 88.5818C24.1206 87.727 24.8301 86.8485 25.6815 86.0887C27.0533 84.8541 27.2188 82.5985 26.3201 81.0552C25.7761 80.1292 24.8774 79.4169 23.8368 79.132C23.482 79.037 23.08 78.9895 22.7016 78.9895C21.9684 78.9658 21.2116 79.132 20.6439 79.5356Z" fill="black"/>
<path d="M48.3154 88.9618C47.7714 89.128 47.2748 89.3892 46.8727 89.7928C44.3894 91.7872 41.977 93.8766 39.6119 96.0135C37.1759 98.2217 35.0237 100.715 33.1316 103.374C32.6586 104.015 32.6113 105.036 32.8242 105.772C33.037 106.556 33.5573 107.22 34.2432 107.648C34.9527 108.075 35.8278 108.194 36.6319 107.956C37.4597 107.719 38.0037 107.197 38.5003 106.532C38.7605 106.152 39.0443 105.796 39.3045 105.416C40.9837 103.421 42.8994 101.641 44.8624 99.9074C47.0146 98.0317 49.2141 96.1797 51.4846 94.4227C52.1231 93.9241 52.4306 92.8794 52.4306 92.0959C52.4306 91.2411 52.0758 90.3864 51.4846 89.7691C50.8697 89.1517 50.0419 88.8193 49.1668 88.8193C48.9067 88.8906 48.6228 88.9143 48.3154 88.9618Z" fill="black"/>
<path d="M50.2074 112.848C48.7174 113.987 47.2037 115.127 45.7374 116.29C44.5548 117.24 43.4669 118.356 42.4499 119.472C41.4093 120.635 40.4633 121.894 39.4936 123.128C38.5239 124.363 37.5306 125.598 36.49 126.785C35.6858 127.711 35.1655 128.708 35.1655 129.99C35.1655 131.177 35.6385 132.341 36.49 133.195C37.3414 134.05 38.4766 134.525 39.6828 134.525C40.818 134.525 42.0952 134.074 42.8756 133.195C46.0212 129.586 49.0248 125.811 52.738 122.772C53.4948 122.202 54.228 121.633 54.9848 121.039C55.2923 120.801 55.6234 120.54 55.9308 120.303C56.5221 119.709 56.9242 119.021 57.137 118.213C57.4681 116.979 57.3026 115.649 56.664 114.557C56.0491 113.489 55.0321 112.705 53.8496 112.373C53.4475 112.254 52.9745 112.206 52.5015 112.206C51.6737 112.183 50.7986 112.373 50.2074 112.848Z" fill="black"/>
<path d="M34.1249 1.49165C33.2498 2.10898 32.3747 2.67882 31.5233 3.31988C30.5063 4.07967 29.5367 4.91068 28.5906 5.71795C27.1243 6.97634 25.7289 8.32971 24.3098 9.63559C22.3468 11.4638 22.4651 14.7641 24.3098 16.5924C25.2322 17.5183 26.4857 18.0407 27.7865 18.0407C29.1346 18.0407 30.2935 17.4946 31.2632 16.5924C32.6112 15.334 33.9593 14.0756 35.3311 12.8647C36.8211 11.535 38.2401 10.1105 39.7301 8.75709C41.2437 7.37998 41.4566 4.86319 40.4396 3.15368C39.8484 2.10898 38.8314 1.34919 37.6961 1.01679C37.2941 0.898072 36.8684 0.850586 36.419 0.850586C35.5912 0.850586 34.7635 1.04053 34.1249 1.49165Z" fill="black"/>
<path d="M16.8126 115.056C15.8193 116.005 14.826 116.979 13.9509 118.071C12.7447 119.591 11.5858 121.158 10.4033 122.677C9.67012 123.651 9.62281 125.289 9.93027 126.405C10.2614 127.616 11.0655 128.661 12.1298 129.302C13.2414 129.943 14.5895 130.133 15.8429 129.777C16.2214 129.61 16.5998 129.444 17.0018 129.302C17.735 128.874 18.3026 128.305 18.7283 127.568C19.3433 126.785 19.9345 125.978 20.5494 125.194C21.4718 124.007 22.4415 122.82 23.4585 121.728C25.2086 119.852 25.3032 116.931 23.4585 115.056C22.5597 114.154 21.3536 113.702 20.171 113.702C18.9412 113.702 17.735 114.154 16.8126 115.056Z" fill="black"/>
<path d="M66.2425 129.468C65.4383 130.299 64.6342 131.13 63.8537 131.985C62.955 132.982 62.1509 134.05 61.3468 135.143C60.0223 136.923 58.7688 138.775 57.5627 140.627C56.5457 142.218 57.2316 144.45 58.7925 145.376C59.5966 145.851 60.5663 145.969 61.4414 145.732C62.3401 145.495 63.0023 144.901 63.499 144.141C64.2558 142.954 65.0363 141.791 65.8641 140.651C66.5736 139.725 67.3304 138.823 68.1109 137.968C69.1751 136.805 70.1448 135.617 71.1855 134.43C71.824 133.718 72.2024 132.911 72.2024 131.937C72.2024 131.011 71.824 130.109 71.1855 129.444C70.4996 128.756 69.6009 128.423 68.7021 128.423C67.8271 128.447 66.9283 128.779 66.2425 129.468Z" fill="black"/>
<path d="M68.9152 93.6867C68.5841 93.9478 68.253 94.209 67.9219 94.4464C67.3306 94.8976 66.7394 95.3724 66.1954 95.871C65.7224 96.3222 65.2967 96.8445 64.871 97.3431C64.0195 98.3641 63.1445 99.385 62.2694 100.406C61.6308 101.142 61.2288 101.926 61.2288 102.947C61.2288 103.896 61.6072 104.799 62.2694 105.487C62.9316 106.176 63.854 106.532 64.8 106.532C65.6751 106.532 66.7157 106.176 67.3306 105.487C68.253 104.419 69.199 103.35 70.1451 102.282C70.5944 101.807 71.0201 101.308 71.4695 100.833C72.0135 100.24 72.5101 99.6225 73.0541 99.0052C73.4798 98.5778 73.7636 98.0792 73.9292 97.5093C74.1657 96.6308 74.0474 95.6811 73.5981 94.8976C73.1487 94.1378 72.4155 93.5679 71.5878 93.3305C71.304 93.2593 70.9728 93.2118 70.6181 93.2118C69.9795 93.2118 69.3409 93.3543 68.9152 93.6867Z" fill="black"/>
</g>
<defs>
<clipPath id="clip0">
<rect width="78" height="145" fill="white" transform="translate(-4 0.850586)"/>
</clipPath>
</defs>
</svg>
