<svg width="227" height="231" viewBox="0 0 227 231" fill="none" xmlns="http://www.w3.org/2000/svg">
<g clip-path="url(#clip0)">
<path d="M37.8855 69.3154C66.4517 43.2092 111.25 17.3757 150.682 35.3907C190.114 53.4057 204.464 88.688 183.866 111.235C163.268 133.781 149.802 149.731 139.586 177.979C129.369 206.228 64.4856 222.043 35.6909 168.464C6.89618 114.884 14.7122 90.4712 37.8855 69.3154Z" fill="#4FB2E4"/>
<g clip-path="url(#clip1)">
<path d="M56.3645 145.059C56.3278 145.096 56.2912 145.133 56.2362 145.17C55.6129 145.648 54.9897 146.145 54.4031 146.679C53.7799 147.249 53.1933 147.838 52.6067 148.427C51.4335 149.604 50.3887 150.874 49.2705 152.107C48.7023 152.733 48.354 153.487 48.354 154.352C48.354 155.199 48.684 156.008 49.2889 156.616C50.4804 157.812 52.6067 157.904 53.7799 156.616C54.8797 155.42 55.9795 154.223 57.171 153.083C58.3992 151.905 59.7006 150.801 60.7821 149.494C60.9471 149.292 61.1121 149.071 61.2771 148.868C61.552 148.372 61.6987 147.856 61.6987 147.286C61.6987 146.458 61.3687 145.648 60.7821 145.078C60.1956 144.489 59.4074 144.157 58.5825 144.157C57.6843 144.139 57.0244 144.507 56.3645 145.059Z" fill="black"/>
<path d="M80.9093 136.649C80.1027 137.349 79.3328 138.103 78.5813 138.876C77.8847 139.575 77.1515 140.274 76.4549 140.992C74.9885 142.483 73.4854 143.9 71.8723 145.243C71.4507 145.611 71.2307 146.274 71.2307 146.807C71.2307 147.396 71.469 147.967 71.8723 148.372C72.2939 148.795 72.8621 149.016 73.4304 149.016C74.0536 149.016 74.5302 148.758 74.9885 148.372C76.6016 147.028 78.1047 145.611 79.5711 144.121C81.0192 142.63 82.3757 141.066 83.8788 139.649C84.722 138.858 84.667 137.441 83.8788 136.649C83.4755 136.244 82.944 136.024 82.3757 136.024C81.8075 136.024 81.3309 136.281 80.9093 136.649Z" fill="black"/>
<path d="M71.2123 157.849C70.6074 158.014 70.0758 158.327 69.6359 158.75C68.2794 159.763 66.9596 160.812 65.7498 161.989C64.6316 163.075 63.6234 164.271 62.6336 165.449C62.432 165.725 62.2303 165.983 62.0103 166.259C61.6621 166.884 61.4788 167.547 61.4788 168.265C61.4788 169.313 61.9004 170.326 62.6336 171.062C63.3668 171.798 64.375 172.221 65.4198 172.221C66.3914 172.221 67.5645 171.835 68.2061 171.062C69.2143 169.866 70.2774 168.761 71.4139 167.694C72.6238 166.553 73.7786 165.375 74.8051 164.069C75.0067 163.811 75.19 163.572 75.3917 163.314C75.7216 162.725 75.9049 162.1 75.9049 161.437C75.9049 160.462 75.5017 159.505 74.8234 158.806C74.1269 158.106 73.1737 157.72 72.2022 157.72C71.8722 157.757 71.5423 157.794 71.2123 157.849Z" fill="black"/>
<path d="M96.7834 145.353C96.3068 145.482 95.8852 145.722 95.5369 146.071C94.1071 147.194 92.714 148.335 91.3392 149.531C89.9827 150.709 88.7729 152.07 87.4348 153.266C86.4449 154.15 86.5366 155.806 87.4348 156.708C87.893 157.168 88.5163 157.425 89.1578 157.425C89.8361 157.425 90.386 157.149 90.8626 156.708C91.4308 156.211 91.9624 155.696 92.5307 155.199C92.9889 154.775 93.4839 154.389 93.9604 154.003C95.5919 152.788 97.3333 151.721 98.9464 150.506C99.1297 150.359 99.3313 150.212 99.5146 150.064C99.8629 149.715 100.101 149.292 100.23 148.813C100.431 148.077 100.321 147.286 99.9545 146.642C99.5879 146.016 98.983 145.537 98.2681 145.335C98.0115 145.261 97.7732 145.243 97.5166 145.243C97.2783 145.243 97.0217 145.28 96.7834 145.353Z" fill="black"/>
<path d="M91.5958 162.983C90.9909 163.149 90.4777 163.461 90.0377 163.903C88.4063 165.228 86.8299 166.608 85.3085 168.062C83.6587 169.626 82.1006 171.264 80.4142 172.791C79.0211 174.061 79.131 176.398 80.4142 177.686C81.0558 178.33 81.9356 178.699 82.8522 178.699C83.8053 178.699 84.6119 178.312 85.2901 177.686C86.9765 176.159 88.608 174.576 90.3127 173.086C91.8891 171.706 93.4106 170.252 95.0053 168.909C95.6836 168.338 96.0319 167.271 96.0319 166.406C96.0319 165.467 95.6652 164.566 95.0053 163.903C94.3454 163.241 93.4472 162.873 92.5124 162.873C92.2374 162.891 91.9258 162.946 91.5958 162.983Z" fill="black"/>
<path d="M67.4543 179.453C66.5561 180.078 65.6946 180.723 64.888 181.459C64.3014 181.992 63.8065 182.636 63.3116 183.244C62.1934 184.55 61.1119 185.894 59.9938 187.2C59.3888 187.899 59.0039 188.636 59.0039 189.592C59.0039 190.476 59.3522 191.341 59.9938 191.985C60.617 192.61 61.4785 192.978 62.3767 192.978C63.2016 192.978 64.1915 192.647 64.7597 191.985C65.8596 190.697 66.9777 189.408 68.0959 188.12C68.5725 187.568 69.0491 187.016 69.544 186.464C70.1489 185.802 70.6988 185.121 71.3587 184.532C72.4219 183.575 72.5502 181.827 71.8537 180.631C71.4321 179.913 70.7355 179.361 69.9289 179.14C69.654 179.066 69.3424 179.03 69.0491 179.03C68.4808 179.011 67.8942 179.14 67.4543 179.453Z" fill="black"/>
<path d="M88.9014 186.759C88.4798 186.887 88.0948 187.09 87.7832 187.403C85.8585 188.948 83.9888 190.568 82.1557 192.224C80.2677 193.936 78.5996 195.868 77.1331 197.929C76.7665 198.426 76.7299 199.217 76.8948 199.787C77.0598 200.395 77.4631 200.91 77.9947 201.241C78.5446 201.572 79.2228 201.664 79.8461 201.48C80.4876 201.296 80.9092 200.892 81.2942 200.376C81.4958 200.082 81.7158 199.806 81.9174 199.511C83.2189 197.966 84.7037 196.585 86.2251 195.242C87.8932 193.788 89.5979 192.353 91.3577 190.991C91.8526 190.605 92.0909 189.795 92.0909 189.188C92.0909 188.525 91.8159 187.863 91.3577 187.384C90.8811 186.906 90.2395 186.648 89.5613 186.648C89.3596 186.703 89.1397 186.722 88.9014 186.759Z" fill="black"/>
<path d="M90.3677 205.271C89.2129 206.155 88.0397 207.038 86.9032 207.94C85.9867 208.676 85.1435 209.541 84.3553 210.406C83.5487 211.307 82.8155 212.283 82.064 213.24C81.3124 214.197 80.5425 215.153 79.736 216.074C79.1127 216.791 78.7095 217.564 78.7095 218.558C78.7095 219.478 79.0761 220.38 79.736 221.042C80.3959 221.705 81.2758 222.073 82.2106 222.073C83.0905 222.073 84.0803 221.723 84.6852 221.042C87.1232 218.245 89.4512 215.319 92.3291 212.964C92.9157 212.522 93.4839 212.08 94.0705 211.62C94.3088 211.436 94.5654 211.234 94.8037 211.05C95.262 210.59 95.5736 210.056 95.7386 209.43C95.9952 208.473 95.8669 207.443 95.372 206.596C94.8954 205.768 94.1072 205.161 93.1906 204.903C92.879 204.811 92.5124 204.775 92.1458 204.775C91.5042 204.756 90.826 204.903 90.3677 205.271Z" fill="black"/>
<path d="M77.9029 118.965C77.2247 119.443 76.5464 119.885 75.8865 120.381C75.0983 120.97 74.3468 121.614 73.6135 122.24C72.477 123.215 71.3955 124.264 70.2957 125.277C68.7743 126.693 68.8659 129.251 70.2957 130.668C71.0106 131.386 71.9821 131.791 72.9903 131.791C74.0351 131.791 74.9333 131.368 75.6849 130.668C76.7297 129.693 77.7746 128.718 78.8378 127.779C79.9926 126.749 81.0924 125.645 82.2472 124.596C83.4204 123.528 83.5854 121.578 82.7972 120.253C82.3389 119.443 81.5507 118.854 80.6708 118.596C80.3592 118.504 80.0292 118.468 79.681 118.468C79.0394 118.468 78.3978 118.615 77.9029 118.965Z" fill="black"/>
<path d="M64.4848 206.983C63.7149 207.719 62.945 208.473 62.2667 209.32C61.3319 210.498 60.4337 211.712 59.5172 212.89C58.9489 213.645 58.9123 214.914 59.1505 215.779C59.4072 216.718 60.0304 217.527 60.8553 218.024C61.7168 218.521 62.7617 218.668 63.7332 218.392C64.0265 218.264 64.3198 218.135 64.6314 218.024C65.1996 217.693 65.6396 217.251 65.9695 216.681C66.4461 216.074 66.9044 215.448 67.381 214.841C68.0959 213.921 68.8474 213 69.6356 212.154C70.9921 210.7 71.0654 208.437 69.6356 206.983C68.9391 206.284 68.0042 205.934 67.0877 205.934C66.1345 205.934 65.1996 206.284 64.4848 206.983Z" fill="black"/>
<path d="M102.796 218.153C102.172 218.797 101.549 219.441 100.944 220.104C100.248 220.877 99.6245 221.705 99.0013 222.551C97.9747 223.931 97.0032 225.367 96.0684 226.802C95.2802 228.035 95.8117 229.765 97.0216 230.483C97.6448 230.851 98.3964 230.943 99.0746 230.759C99.7712 230.575 100.284 230.115 100.669 229.526C101.256 228.606 101.861 227.704 102.502 226.821C103.052 226.103 103.639 225.404 104.244 224.741C105.069 223.839 105.82 222.919 106.627 221.999C107.122 221.447 107.415 220.821 107.415 220.067C107.415 219.349 107.122 218.65 106.627 218.135C106.095 217.601 105.399 217.343 104.702 217.343C104.024 217.362 103.327 217.619 102.796 218.153Z" fill="black"/>
<path d="M104.867 190.421C104.611 190.623 104.354 190.826 104.097 191.01C103.639 191.359 103.181 191.727 102.759 192.114C102.393 192.463 102.063 192.868 101.733 193.255C101.073 194.046 100.395 194.837 99.7165 195.629C99.2215 196.199 98.9099 196.806 98.9099 197.598C98.9099 198.334 99.2032 199.033 99.7165 199.567C100.23 200.1 100.945 200.376 101.678 200.376C102.356 200.376 103.163 200.1 103.639 199.567C104.354 198.739 105.087 197.91 105.821 197.082C106.169 196.714 106.499 196.328 106.847 195.96C107.269 195.5 107.654 195.021 108.075 194.543C108.405 194.212 108.625 193.825 108.753 193.383C108.937 192.703 108.845 191.966 108.497 191.359C108.149 190.77 107.58 190.329 106.939 190.145C106.719 190.089 106.462 190.053 106.187 190.053C105.692 190.053 105.197 190.163 104.867 190.421Z" fill="black"/>
</g>
</g>
<defs>
<clipPath id="clip0">
<rect width="227" height="231" fill="white"/>
</clipPath>
<clipPath id="clip1">
<rect width="60.4543" height="112.383" fill="white" transform="translate(48.354 118.468)"/>
</clipPath>
</defs>
</svg>
