<svg width="1321" height="215" viewBox="0 0 1321 215" fill="none" xmlns="http://www.w3.org/2000/svg">
<line x1="1" y1="113.5" x2="439" y2="113.5" stroke="white" stroke-width="5"/>
<line x1="581" y1="113.5" x2="1146" y2="113.5" stroke="white" stroke-width="5"/>
<path d="M0 90L90 0H1321V215H0V90Z" fill="#E3599C"/>
<mask id="mask0" mask-type="alpha" maskUnits="userSpaceOnUse" x="163" y="0" width="1158" height="215">
<rect x="163" width="1158" height="215" fill="#5C63FA"/>
</mask>
<g mask="url(#mask0)">
<path d="M1084.5 189.847V188.847H1083.5H967V37.2196L1048.11 -44H1200V189.433L1084.5 305.084V189.847ZM1139.87 15.7458V124.126V126.543L1141.58 124.833L1164.24 102.147H1164.28H1165.28V101.147V-8.23338V-9.23338H1164.28H1061.47H1061.06L1060.77 -8.94699L1037.36 14.0322L1035.61 15.7458H1038.06H1139.87Z" stroke="#FF9D13" stroke-width="2"/>
</g>
</svg>
