<svg width="26" height="26" viewBox="0 0 26 26" fill="none" xmlns="http://www.w3.org/2000/svg">
<g opacity="0.5">
<path d="M20.2964 9.53324C20.2964 7.78411 18.8703 6.35797 17.1212 6.35797H9.52337C7.77424 6.35797 6.3481 7.78411 6.3481 9.53324V17.131C6.3481 18.8802 7.77424 20.3063 9.52337 20.3063H17.1212C18.8703 20.3063 20.2964 18.8802 20.2964 17.131V9.53324ZM13.3248 17.7025C10.9147 17.7025 8.95689 15.7447 8.95689 13.3346C8.95689 10.9246 10.9147 8.96676 13.3248 8.96676C15.7348 8.96676 17.6926 10.9246 17.6926 13.3346C17.6926 15.7397 15.7348 17.7025 13.3248 17.7025ZM18.6566 9.573C18.4529 9.77673 18.1647 9.89599 17.8765 9.89599C17.5883 9.89599 17.3001 9.77673 17.0963 9.573C16.8926 9.36926 16.7733 9.08105 16.7733 8.79284C16.7733 8.49967 16.8926 8.21643 17.0963 8.01269C17.3001 7.80896 17.5883 7.6897 17.8765 7.6897C18.1697 7.6897 18.4529 7.80896 18.6566 8.01269C18.8604 8.21643 18.9796 8.50463 18.9796 8.79284C18.9796 9.08105 18.8604 9.36429 18.6566 9.573Z" fill="white"/>
<path d="M13.3244 10.4671C11.7443 10.4671 10.4573 11.7541 10.4573 13.3343C10.4573 14.9145 11.7443 16.2015 13.3244 16.2015C14.9046 16.2015 16.1916 14.9145 16.1916 13.3343C16.1867 11.7541 14.9046 10.4671 13.3244 10.4671Z" fill="white"/>
<path d="M20.669 2H5.9753C3.77895 2 2 3.77895 2 5.9753V20.669C2 22.8654 3.77895 24.6443 5.9753 24.6443H20.669C22.8654 24.6443 24.6443 22.8654 24.6443 20.669V5.9753C24.6443 3.77895 22.8654 2 20.669 2ZM21.802 17.131C21.802 19.71 19.705 21.8119 17.1211 21.8119H9.52326C6.94428 21.8119 4.84234 19.7149 4.84234 17.131V9.5332C4.84234 6.95422 6.93931 4.85228 9.52326 4.85228H17.1211C19.7 4.85228 21.802 6.94925 21.802 9.5332V17.131Z" fill="white"/>
</g>
</svg>
