<svg width="24" height="23" viewBox="0 0 24 23" fill="none" xmlns="http://www.w3.org/2000/svg">
<path d="M19.2007 7.88865C19.2007 6.13952 17.7746 4.71338 16.0254 4.71338H8.42769C6.67857 4.71338 5.25244 6.13952 5.25244 7.88865V15.4865C5.25244 17.2356 6.67857 18.6617 8.42769 18.6617H16.0254C17.7746 18.6617 19.2007 17.2356 19.2007 15.4865V7.88865ZM12.229 16.0579C9.81904 16.0579 7.86121 14.1001 7.86121 11.69C7.86121 9.28001 9.81904 7.32217 12.229 7.32217C14.6391 7.32217 16.5969 9.28001 16.5969 11.69C16.5969 14.0951 14.6391 16.0579 12.229 16.0579ZM17.5609 7.92841C17.3572 8.13214 17.0689 8.2514 16.7807 8.2514C16.4925 8.2514 16.2043 8.13214 16.0006 7.92841C15.7969 7.72467 15.6776 7.43646 15.6776 7.14825C15.6776 6.85507 15.7969 6.57183 16.0006 6.3681C16.2043 6.16437 16.4925 6.04511 16.7807 6.04511C17.0739 6.04511 17.3572 6.16437 17.5609 6.3681C17.7646 6.57183 17.8839 6.86004 17.8839 7.14825C17.8839 7.43646 17.7646 7.7197 17.5609 7.92841Z" fill="white"/>
<path d="M12.2285 8.82275C10.6483 8.82275 9.36133 10.1098 9.36133 11.6899C9.36133 13.2701 10.6483 14.5571 12.2285 14.5571C13.8087 14.5571 15.0957 13.2701 15.0957 11.6899C15.0907 10.1098 13.8087 8.82275 12.2285 8.82275Z" fill="white"/>
<path d="M19.5733 0.355469H4.8796C2.68324 0.355469 0.904297 2.13442 0.904297 4.33077V19.0245C0.904297 21.2208 2.68324 22.9998 4.8796 22.9998H19.5733C21.7697 22.9998 23.5486 21.2208 23.5486 19.0245V4.33077C23.5486 2.13442 21.7697 0.355469 19.5733 0.355469ZM20.7063 15.4865C20.7063 18.0654 18.6093 20.1674 16.0254 20.1674H8.42756C5.84858 20.1674 3.74664 18.0704 3.74664 15.4865V7.88867C3.74664 5.30969 5.84361 3.20775 8.42756 3.20775H16.0254C18.6043 3.20775 20.7063 5.30472 20.7063 7.88867V15.4865Z" fill="white"/>
</svg>
