<svg width="26" height="26" viewBox="0 0 26 26" fill="none" xmlns="http://www.w3.org/2000/svg">
<path opacity="0.5" d="M19.4167 2H6.58333C4.01667 2 2 4.01667 2 6.58333V19.4167C2 21.9833 4.01667 24 6.58333 24H19.4167C21.9833 24 24 21.9833 24 19.4167V6.58333C24 4.01667 21.9833 2 19.4167 2ZM9.33333 19.4167H6.58333V9.33333H9.33333V19.4167ZM7.95833 8.14167C7.04167 8.14167 6.30833 7.40833 6.30833 6.49167C6.30833 5.575 7.04167 4.84167 7.95833 4.84167C8.875 4.84167 9.51667 5.66667 9.51667 6.58333C9.51667 7.5 8.875 8.14167 7.95833 8.14167ZM20.3333 19.4167H17.5833V14.2833C17.5833 11.1667 13.9167 11.4417 13.9167 14.2833V19.4167H11.1667V9.33333H13.9167V10.9833C15.2 8.6 20.3333 8.41667 20.3333 13.275V19.4167Z" fill="white"/>
</svg>
