<svg width="222" height="183" viewBox="0 0 222 183" fill="none" xmlns="http://www.w3.org/2000/svg">
<g clip-path="url(#clip0)">
<path d="M89.9214 142.875C60.4759 151.52 31.2564 144.48 22.7049 95.4556C14.1534 46.4308 29.2093 9.86613 74.7037 19.2391C120.198 28.6122 183.48 53.1249 160.507 98.4419C137.534 143.759 120.359 133.944 89.9214 142.875Z" fill="#EF4B49"/>
<path d="M171.735 55.2701C169.636 54.7076 168.406 52.5613 168.972 50.4487C169.538 48.3361 171.676 47.0924 173.775 47.6549C175.875 48.2174 177.105 50.3636 176.539 52.4762C175.979 54.5643 173.81 55.826 171.735 55.2701Z" fill="black"/>
<path d="M184.061 146.932C181.962 146.37 180.732 144.223 181.298 142.111C181.864 139.998 184.003 138.754 186.102 139.317C188.201 139.879 189.431 142.026 188.865 144.138C188.299 146.251 186.136 147.488 184.061 146.932Z" fill="black"/>
<path d="M160.91 164.503C158.81 163.941 157.58 161.795 158.146 159.682C158.712 157.57 160.851 156.326 162.95 156.888C165.049 157.451 166.279 159.597 165.713 161.71C165.154 163.798 162.984 165.059 160.91 164.503Z" fill="black"/>
<path d="M200.41 113.452C198.311 112.89 197.081 110.743 197.647 108.631C198.213 106.518 200.351 105.274 202.45 105.837C204.549 106.399 205.779 108.546 205.213 110.658C204.654 112.746 202.509 114.015 200.41 113.452Z" fill="black"/>
<path d="M106.134 151.301C104.035 150.738 102.805 148.592 103.371 146.479C103.937 144.367 106.075 143.123 108.174 143.685C110.273 144.248 111.504 146.394 110.937 148.507C110.396 150.626 108.233 151.863 106.134 151.301Z" fill="black"/>
<path d="M117.073 36.1739C114.974 35.6114 113.744 33.4651 114.31 31.3526C114.876 29.24 117.015 27.9963 119.114 28.5588C121.213 29.1212 122.443 31.2675 121.877 33.3801C121.317 35.4681 119.172 36.7363 117.073 36.1739Z" fill="black"/>
<path d="M87.8862 62.5016C85.787 61.9392 84.557 59.7929 85.1231 57.6803C85.6891 55.5677 87.8275 54.324 89.9267 54.8865C92.0258 55.4489 93.2559 57.5952 92.6898 59.7078C92.1237 61.8204 89.9609 63.0576 87.8862 62.5016Z" fill="black"/>
<path d="M81.1727 98.5896C79.0736 98.0272 77.8435 95.8809 78.4096 93.7683C78.9757 91.6557 81.114 90.412 83.2132 90.9745C85.3123 91.537 86.5424 93.6832 85.9763 95.7958C85.4168 97.8838 83.2474 99.1456 81.1727 98.5896Z" fill="black"/>
<path d="M146.777 38.1828C144.678 37.6204 143.448 35.4741 144.014 33.3615C144.58 31.2489 146.719 30.0052 148.818 30.5677C150.917 31.1302 152.147 33.2764 151.581 35.389C151.039 37.5081 148.876 38.7453 146.777 38.1828Z" fill="black"/>
<path d="M194.068 82.0538C191.969 81.4913 190.739 79.345 191.305 77.2324C191.871 75.1198 194.009 73.8761 196.108 74.4386C198.207 75.0011 199.437 77.1473 198.871 79.2599C198.305 81.3725 196.143 82.6097 194.068 82.0538Z" fill="black"/>
</g>
<defs>
<clipPath id="clip0">
<rect width="192" height="137" fill="white" transform="translate(186 182.363) rotate(-165)"/>
</clipPath>
</defs>
</svg>
