<svg width="27" height="27" viewBox="0 0 27 27" fill="none" xmlns="http://www.w3.org/2000/svg">
<path d="M24.8512 23.3385L24.8498 23.3371L24.836 23.3233L24.8221 23.3094L17.5629 16.053C18.8428 14.448 19.6061 12.4259 19.6061 10.2245C19.6061 5.0589 15.3955 0.85 10.228 0.85C5.0606 0.85 0.85 5.0589 0.85 10.2245C0.85 15.3901 5.0606 19.599 10.228 19.599C12.4299 19.599 14.4526 18.8362 16.0495 17.5657L23.3076 24.8209C23.7156 25.2488 24.4005 25.2597 24.8199 24.8521C25.2491 24.444 25.26 23.758 24.8512 23.3385ZM10.228 2.9949C14.2333 2.9949 17.4605 6.22094 17.4605 10.2245C17.4605 14.228 14.2333 17.4541 10.228 17.4541C6.22281 17.4541 2.99561 14.228 2.99561 10.2245C2.99561 6.22094 6.22281 2.9949 10.228 2.9949Z" fill="black" stroke="black" stroke-width="0.3"/>
</svg>
