<svg width="20" height="17" viewBox="0 0 20 17" fill="none" xmlns="http://www.w3.org/2000/svg">
<path d="M19.6796 1.98184C19.236 2.18102 18.7729 2.34036 18.3001 2.45489C18.8217 1.94698 19.2116 1.31459 19.4359 0.607499C19.4992 0.403339 19.2848 0.229057 19.1044 0.338606C18.4463 0.736965 17.7395 1.03574 16.9986 1.22994C16.9547 1.23989 16.9108 1.24487 16.8669 1.24487C16.7305 1.24487 16.5988 1.19508 16.4965 1.10047C15.7068 0.39338 14.6977 0 13.6448 0C13.1915 0 12.7284 0.0746924 12.2799 0.214118C10.8809 0.657293 9.8036 1.83245 9.46725 3.28647C9.34051 3.82923 9.30639 4.37698 9.36489 4.90978C9.36976 4.96954 9.34539 5.01435 9.32589 5.03427C9.29664 5.06913 9.25277 5.08904 9.2089 5.08904C9.20403 5.08904 9.19915 5.08904 9.19428 5.08904C6.13301 4.80023 3.37397 3.29145 1.42412 0.851494C1.32662 0.727006 1.13164 0.741945 1.05365 0.881371C0.673424 1.54862 0.46869 2.31547 0.46869 3.09725C0.46869 4.29233 0.936654 5.41769 1.75559 6.23433C1.41437 6.14968 1.08289 6.02021 0.770917 5.84593C0.619803 5.76128 0.439442 5.87083 0.434567 6.04511C0.415069 7.81781 1.42899 9.39631 2.94988 10.1084C2.92063 10.1084 2.88651 10.1084 2.85726 10.1084C2.61353 10.1084 2.3698 10.0835 2.13094 10.0387C1.9652 10.0038 1.82384 10.1681 1.87258 10.3374C2.36492 11.9159 3.69569 13.0762 5.28482 13.3401C3.9638 14.2463 2.42829 14.7244 0.829412 14.7244H0.3322C0.176212 14.7244 0.0494714 14.8289 0.0104744 14.9783C-0.0285226 15.1277 0.0445968 15.2871 0.176212 15.3617C1.97982 16.4323 4.03204 17 6.12326 17C7.95125 17 9.65737 16.6315 11.2026 15.8995C12.6163 15.2323 13.869 14.2712 14.922 13.0562C15.9018 11.9209 16.6671 10.6113 17.1984 9.16227C17.7054 7.78295 17.9735 6.30902 17.9735 4.89982V4.83509C17.9735 4.61101 18.0758 4.39689 18.2465 4.25249C18.9094 3.70474 19.4846 3.05741 19.9623 2.3304C20.0842 2.12624 19.8892 1.88723 19.6796 1.98184Z" fill="white"/>
</svg>
