<svg width="20" height="18" viewBox="0 0 20 18" fill="none" xmlns="http://www.w3.org/2000/svg">
<path opacity="0.5" d="M19.6796 2.48184C19.236 2.68102 18.7729 2.84036 18.3001 2.95489C18.8217 2.44698 19.2116 1.81459 19.4359 1.1075C19.4992 0.903339 19.2848 0.729057 19.1044 0.838606C18.4463 1.23697 17.7395 1.53574 16.9986 1.72994C16.9547 1.73989 16.9108 1.74487 16.8669 1.74487C16.7305 1.74487 16.5988 1.69508 16.4965 1.60047C15.7068 0.89338 14.6977 0.5 13.6448 0.5C13.1915 0.5 12.7284 0.574692 12.2799 0.714118C10.8809 1.15729 9.8036 2.33245 9.46725 3.78647C9.34051 4.32923 9.30639 4.87698 9.36489 5.40978C9.36976 5.46954 9.34539 5.51435 9.32589 5.53427C9.29664 5.56913 9.25277 5.58904 9.2089 5.58904C9.20403 5.58904 9.19915 5.58904 9.19428 5.58904C6.13301 5.30023 3.37397 3.79145 1.42412 1.35149C1.32662 1.22701 1.13164 1.24194 1.05365 1.38137C0.673424 2.04862 0.46869 2.81547 0.46869 3.59725C0.46869 4.79233 0.936654 5.91769 1.75559 6.73433C1.41437 6.64968 1.08289 6.52021 0.770917 6.34593C0.619803 6.26128 0.439442 6.37083 0.434567 6.54511C0.415069 8.31781 1.42899 9.89631 2.94988 10.6084C2.92063 10.6084 2.88651 10.6084 2.85726 10.6084C2.61353 10.6084 2.3698 10.5835 2.13094 10.5387C1.9652 10.5038 1.82384 10.6681 1.87258 10.8374C2.36492 12.4159 3.69569 13.5762 5.28482 13.8401C3.9638 14.7463 2.42829 15.2244 0.829412 15.2244H0.3322C0.176212 15.2244 0.0494714 15.3289 0.0104744 15.4783C-0.0285226 15.6277 0.0445968 15.7871 0.176212 15.8617C1.97982 16.9323 4.03204 17.5 6.12326 17.5C7.95125 17.5 9.65737 17.1315 11.2026 16.3995C12.6163 15.7323 13.869 14.7712 14.922 13.5562C15.9018 12.4209 16.6671 11.1113 17.1984 9.66227C17.7054 8.28295 17.9735 6.80902 17.9735 5.39982V5.33509C17.9735 5.11101 18.0758 4.89689 18.2465 4.75249C18.9094 4.20474 19.4846 3.55741 19.9623 2.8304C20.0842 2.62624 19.8892 2.38723 19.6796 2.48184Z" fill="#A8A8A8"/>
</svg>
