<?xml version="1.0" standalone="no"?>
<!DOCTYPE svg PUBLIC "-//W3C//DTD SVG 20010904//EN"
 "http://www.w3.org/TR/2001/REC-SVG-20010904/DTD/svg10.dtd">
<svg version="1.0" xmlns="http://www.w3.org/2000/svg"
 width="1584.000000pt" height="361.000000pt" viewBox="0 0 1584.000000 361.000000"
 preserveAspectRatio="xMidYMid meet">
<metadata>
Created by potrace 1.16, written by Peter Selinger 2001-2019
</metadata>
<g transform="translate(0.000000,361.000000) scale(0.100000,-0.100000)"
fill="#000000" stroke="none">
<path d="M372 3237 l-372 -372 0 -698 0 -697 535 0 535 0 0 -535 c0 -294 3
-535 8 -535 4 0 247 240 540 533 l532 532 0 1073 0 1072 -703 0 -702 0 -373
-373z m1428 -465 l0 -497 -100 -100 -100 -100 0 498 0 497 -457 0 -458 0 100
100 100 100 457 0 458 0 0 -498z"/>
<path d="M15270 2550 l0 -40 40 0 40 0 0 -100 0 -100 45 0 45 0 0 100 0 100
40 0 40 0 0 40 0 40 -125 0 -125 0 0 -40z"/>
<path d="M15550 2450 l0 -140 40 0 40 0 0 72 0 72 30 -47 c16 -26 33 -47 37
-47 5 0 20 19 35 43 l28 42 0 -67 0 -68 40 0 40 0 0 140 0 140 -40 0 c-38 0
-43 -3 -72 -50 l-31 -51 -30 51 c-28 48 -30 50 -73 50 l-44 0 0 -140z"/>
<path d="M6410 2020 l0 -550 150 0 149 0 3 256 3 256 33 29 c38 34 93 39 131
13 46 -32 51 -66 51 -319 l0 -235 145 0 145 0 0 304 c0 355 -4 381 -80 457
-99 99 -280 99 -393 -1 l-37 -32 0 186 0 186 -150 0 -150 0 0 -550z"/>
<path d="M9910 2020 l0 -550 145 0 145 0 0 550 0 550 -145 0 -145 0 0 -550z"/>
<path d="M10360 2460 l0 -110 155 0 155 0 0 110 0 110 -155 0 -155 0 0 -110z"/>
<path d="M12290 2460 l0 -110 150 0 150 0 0 110 0 110 -150 0 -150 0 0 -110z"/>
<path d="M14870 2389 l0 -181 -35 26 c-91 70 -213 89 -323 52 -65 -22 -154
-101 -188 -167 -71 -142 -73 -332 -3 -470 36 -73 122 -152 191 -175 114 -39
238 -17 321 56 l37 32 0 -46 0 -46 145 0 145 0 0 550 0 550 -145 0 -145 0 0
-181z m-66 -362 c44 -34 66 -83 66 -147 0 -134 -111 -214 -220 -158 -65 34
-92 84 -88 168 3 49 9 74 27 98 52 73 147 90 215 39z"/>
<path d="M2783 2508 c2 -7 91 -155 196 -328 l191 -314 0 -198 0 -198 150 0
150 0 0 196 0 197 187 306 c103 168 193 316 201 329 l14 22 -170 0 -170 0
-104 -184 -103 -183 -104 183 -103 184 -170 0 c-132 0 -169 -3 -165 -12z"/>
<path d="M7800 2203 c1 -221 5 -341 14 -393 32 -180 142 -298 316 -341 68 -16
247 -17 318 -1 126 28 226 101 276 201 52 102 56 138 56 508 l0 343 -150 0
-150 0 0 -316 c0 -219 -4 -329 -12 -357 -43 -143 -250 -167 -330 -39 -23 36
-23 42 -26 375 l-3 337 -154 0 -155 0 0 -317z"/>
<path d="M5780 2390 l0 -100 -45 0 -45 0 0 -120 0 -120 44 0 44 0 4 -207 c4
-229 10 -258 70 -320 48 -50 111 -66 231 -61 64 3 116 11 140 22 l37 16 0 116
c0 116 0 116 -22 109 -13 -3 -44 -9 -71 -12 -37 -4 -52 -2 -67 12 -18 17 -20
32 -20 172 l0 153 90 0 90 0 0 120 0 120 -90 0 -90 0 0 100 0 100 -150 0 -150
0 0 -100z"/>
<path d="M12800 2390 l0 -100 -50 0 -50 0 0 -120 0 -120 50 0 50 0 0 -197 c0
-109 5 -214 10 -234 16 -56 51 -101 100 -129 41 -23 56 -25 165 -25 91 0 129
4 158 17 l37 17 0 117 c0 116 0 116 -22 109 -13 -3 -44 -9 -69 -12 -39 -4 -50
-2 -68 16 -20 20 -21 32 -21 171 l0 150 95 0 95 0 0 120 0 120 -95 0 -95 0 0
100 0 100 -145 0 -145 0 0 -100z"/>
<path d="M4090 2299 c-134 -23 -264 -119 -323 -238 -30 -62 -32 -71 -32 -181
0 -109 2 -119 32 -182 104 -219 386 -309 620 -197 248 118 317 447 139 656
-95 111 -276 170 -436 142z m160 -264 c74 -38 111 -147 76 -228 -19 -47 -77
-94 -125 -102 -33 -5 -51 -2 -89 17 -84 41 -121 135 -88 222 37 97 136 137
226 91z"/>
<path d="M9413 2300 c-52 -11 -93 -32 -138 -71 l-35 -31 0 46 0 46 -150 0
-150 0 0 -410 0 -410 150 0 150 0 0 251 0 251 34 34 c58 58 141 42 172 -32 11
-25 14 -90 14 -269 l0 -235 145 0 145 0 0 304 c0 355 -4 381 -80 456 -61 62
-163 89 -257 70z"/>
<path d="M11293 2300 c-52 -11 -93 -32 -138 -71 l-35 -31 0 46 0 46 -145 0
-145 0 0 -410 0 -410 145 0 144 0 3 256 3 256 33 29 c34 31 85 39 123 19 44
-24 49 -54 49 -315 l0 -245 150 0 150 0 0 248 c0 261 2 271 50 309 19 15 84
17 111 3 44 -24 49 -54 49 -315 l0 -245 151 0 151 0 -4 313 c-5 334 -6 345
-60 424 -44 64 -119 97 -223 96 -93 0 -163 -26 -228 -83 l-38 -33 -33 37 c-58
63 -169 95 -263 76z"/>
<path d="M13681 2299 c-190 -32 -331 -209 -331 -419 0 -227 136 -386 361 -421
92 -15 195 -1 276 36 49 22 153 108 153 126 0 4 -36 38 -81 74 l-80 68 -27
-26 c-43 -39 -90 -59 -146 -59 -60 -1 -103 18 -140 62 -50 61 -53 60 239 60
l265 0 0 73 c0 231 -126 394 -330 427 -74 11 -84 11 -159 -1z m152 -234 c26
-18 47 -50 57 -85 l9 -30 -135 0 -135 0 6 23 c30 98 125 143 198 92z"/>
<path d="M4750 2002 c0 -318 7 -374 59 -447 18 -25 50 -51 85 -69 49 -25 68
-30 134 -29 90 0 146 22 205 79 l37 36 0 -51 0 -51 145 0 145 0 0 410 0 410
-145 0 -145 0 0 -224 c0 -123 -3 -238 -6 -255 -4 -17 -19 -45 -34 -61 -22 -24
-36 -30 -70 -30 -52 0 -76 13 -95 50 -12 24 -15 75 -15 275 l0 245 -150 0
-150 0 0 -288z"/>
<path d="M10370 1880 l0 -410 145 0 145 0 0 410 0 410 -145 0 -145 0 0 -410z"/>
<path d="M12290 1880 l0 -410 150 0 150 0 0 410 0 410 -150 0 -150 0 0 -410z"/>
<path d="M4479 650 c-102 -17 -198 -92 -242 -189 -17 -36 -21 -66 -21 -136 0
-104 18 -156 80 -225 60 -66 122 -93 229 -98 115 -5 184 18 250 84 25 25 45
49 45 53 0 4 -29 29 -65 54 l-66 47 -37 -30 c-73 -58 -150 -59 -204 -3 -89 93
-44 256 75 278 41 8 110 -18 137 -52 l19 -25 71 57 72 57 -34 35 c-47 50 -104
80 -172 92 -66 12 -71 12 -137 1z"/>
<path d="M6287 636 c-132 -49 -207 -162 -207 -311 0 -101 27 -171 90 -235 69
-68 139 -93 245 -88 129 7 224 67 276 176 33 70 38 198 10 273 -27 72 -75 127
-142 164 -46 25 -67 30 -144 32 -60 2 -103 -1 -128 -11z m228 -91 c143 -83
167 -283 49 -401 -78 -79 -195 -92 -291 -33 -75 46 -124 164 -109 261 8 52 55
130 97 160 73 54 176 59 254 13z"/>
<path d="M7972 620 c-114 -58 -176 -160 -176 -295 0 -65 4 -90 25 -135 34 -74
76 -120 141 -156 49 -27 61 -29 153 -29 89 0 106 3 151 27 60 32 118 93 148
157 33 71 30 207 -6 283 -55 118 -154 178 -297 178 -67 0 -86 -4 -139 -30z
m220 -56 c95 -32 162 -130 163 -239 1 -164 -147 -285 -296 -242 -139 41 -211
183 -167 331 17 55 100 139 153 153 58 16 96 15 147 -3z"/>
<path d="M10445 621 c-238 -112 -244 -466 -11 -589 46 -24 62 -27 151 -27 89
0 106 3 151 27 61 32 118 93 146 156 17 36 22 68 22 137 1 115 -23 174 -100
244 -66 60 -123 81 -223 81 -63 0 -87 -5 -136 -29z m201 -52 c61 -16 137 -85
160 -146 65 -169 -49 -346 -221 -346 -97 0 -172 50 -214 143 -27 59 -28 160
-2 215 26 55 90 114 142 130 55 17 79 18 135 4z"/>
<path d="M2953 633 c2 -4 56 -95 121 -201 l116 -192 0 -115 0 -115 90 0 90 0
0 116 0 115 120 196 c66 107 120 197 120 199 0 2 -46 4 -103 4 l-104 0 -58
-105 c-33 -59 -63 -101 -68 -96 -4 4 -32 50 -61 102 l-53 94 -107 3 c-59 1
-106 -1 -103 -5z"/>
<path d="M3650 325 l0 -315 95 0 95 0 0 110 0 110 145 0 145 0 0 80 0 80 -145
0 -145 0 0 45 0 45 160 0 160 0 0 80 0 80 -255 0 -255 0 0 -315z"/>
<path d="M5370 605 l0 -35 105 0 105 0 0 -280 0 -280 40 0 40 0 0 280 0 280
105 0 105 0 0 35 0 35 -250 0 -250 0 0 -35z"/>
<path d="M7020 326 l0 -316 40 0 40 0 0 120 0 120 85 0 85 0 88 -120 87 -119
53 -1 53 0 -19 28 c-11 15 -54 72 -95 127 l-75 99 36 13 c82 28 122 85 122
173 0 71 -23 116 -78 155 l-44 30 -189 3 -189 4 0 -316z m332 232 c128 -38
112 -198 -23 -227 -27 -6 -90 -11 -139 -11 l-90 0 0 125 0 125 106 0 c59 0
124 -5 146 -12z"/>
<path d="M8740 325 l0 -315 35 0 35 0 2 249 3 249 195 -248 c183 -233 197
-249 228 -250 l32 0 0 315 0 315 -35 0 -35 0 -2 -242 -3 -242 -190 242 c-188
239 -190 242 -227 242 l-38 0 0 -315z"/>
<path d="M9550 605 l0 -35 105 0 105 0 0 -280 0 -280 40 0 40 0 0 280 0 280
105 0 105 0 0 35 0 35 -250 0 -250 0 0 -35z"/>
</g>
</svg>
